{"glyphs":{"0":{"ha":725,"x_min":40,"x_max":685,"o":"m 685 306 q 661 172 685 232 q 595 70 638 113 q 493 5 553 28 q 363 -18 433 -18 q 232 5 292 -18 q 130 70 172 28 q 64 172 88 113 q 40 306 40 232 l 40 603 q 64 736 40 676 q 130 838 88 796 q 232 903 172 881 q 363 926 292 926 q 493 903 433 926 q 595 838 553 881 q 661 736 638 796 q 685 603 685 676 l 685 306 m 553 603 q 501 750 553 696 q 363 804 450 804 q 224 750 275 804 q 172 603 172 696 l 172 306 q 224 158 172 213 q 363 104 275 104 q 501 158 450 104 q 553 306 553 213 l 553 603 z "},"1":{"ha":725,"x_min":161,"x_max":490,"o":"m 358 0 l 358 790 l 161 790 l 161 908 l 490 908 l 490 0 l 358 0 z "},"2":{"ha":725,"x_min":75,"x_max":657,"o":"m 75 0 l 75 113 l 407 424 q 492 522 460 472 q 524 631 524 572 q 483 755 524 706 q 365 804 443 804 q 248 754 290 804 q 206 621 206 704 l 206 608 l 76 608 l 76 621 q 97 747 76 690 q 154 843 117 803 q 245 905 192 883 q 367 926 299 926 q 488 904 433 926 q 579 842 542 882 q 637 749 617 803 q 657 631 657 694 q 647 549 657 586 q 616 477 636 511 q 567 411 596 443 q 503 346 539 379 l 258 121 l 258 118 l 646 118 l 646 0 l 75 0 z "},"3":{"ha":725,"x_min":46,"x_max":675,"o":"m 247 422 l 247 539 l 353 539 q 471 573 432 539 q 510 671 510 607 q 472 765 510 726 q 358 804 433 804 q 247 766 285 804 q 206 669 210 728 l 78 669 q 159 860 82 794 q 360 926 236 926 q 474 909 422 926 q 563 860 526 892 q 621 782 600 828 q 642 681 642 736 q 610 558 642 608 q 521 483 579 508 l 521 481 q 635 398 594 454 q 675 257 675 342 q 651 142 675 193 q 586 56 628 92 q 486 1 544 21 q 360 -18 428 -18 q 234 1 292 -18 q 135 56 176 19 q 69 145 93 93 q 46 264 46 197 l 174 264 q 222 149 174 194 q 358 104 269 104 q 494 150 447 104 q 540 264 540 196 q 494 380 540 338 q 353 422 447 422 l 247 422 z "},"4":{"ha":725,"x_min":35,"x_max":703,"o":"m 474 0 l 474 199 l 35 199 l 35 311 l 474 908 l 606 908 l 606 317 l 703 317 l 703 199 l 606 199 l 606 0 l 474 0 m 471 722 l 178 319 l 178 317 l 474 317 l 474 722 l 471 722 z "},"5":{"ha":725,"x_min":39,"x_max":681,"o":"m 233 790 l 200 533 l 203 533 q 278 592 232 571 q 386 613 324 613 q 501 590 447 613 q 595 528 556 568 q 658 431 635 488 q 681 307 681 375 l 681 296 q 657 170 681 228 q 591 71 633 113 q 489 6 549 29 q 358 -18 429 -18 q 238 2 293 -18 q 140 58 182 22 q 72 144 99 94 q 39 254 46 194 l 172 254 q 235 146 186 188 q 358 104 283 104 q 437 119 401 104 q 497 158 472 133 q 535 219 522 183 q 549 296 549 254 l 549 307 q 535 384 549 349 q 497 444 522 419 q 437 484 472 469 q 358 499 401 499 q 254 471 297 499 q 189 397 211 443 l 71 433 l 132 908 l 606 908 l 606 790 l 233 790 z "},"6":{"ha":725,"x_min":46,"x_max":690,"o":"m 690 303 q 667 173 690 232 q 601 72 643 114 q 499 6 558 29 q 368 -18 439 -18 q 238 6 297 -18 q 135 72 178 29 q 69 173 93 114 q 46 303 46 232 l 46 308 q 66 433 46 375 q 132 561 86 490 l 357 908 l 503 908 l 296 596 l 296 593 q 347 613 319 606 q 403 621 374 621 q 519 597 467 621 q 610 532 572 574 q 669 435 649 490 q 690 315 690 379 l 690 303 m 557 311 q 506 455 557 401 q 368 508 456 508 q 231 454 282 508 q 179 311 179 400 l 179 303 q 230 158 179 213 q 368 104 281 104 q 506 158 456 104 q 557 303 557 213 l 557 311 z "},"7":{"ha":725,"x_min":71,"x_max":661,"o":"m 247 0 l 104 0 l 514 788 l 514 790 l 71 790 l 71 908 l 661 908 l 661 796 l 247 0 z "},"8":{"ha":725,"x_min":42,"x_max":683,"o":"m 683 256 q 660 142 683 193 q 594 56 636 92 q 492 1 551 21 q 363 -18 433 -18 q 233 1 292 -18 q 131 56 174 21 q 65 142 89 92 q 42 256 42 193 q 84 397 42 340 q 201 481 126 454 l 201 483 q 106 558 139 508 q 74 681 74 607 q 94 782 74 736 q 153 860 115 828 q 244 909 190 892 q 363 926 297 926 q 481 909 428 926 q 572 860 535 892 q 631 782 610 828 q 651 681 651 736 q 618 558 651 607 q 524 483 585 508 l 524 481 q 641 397 599 454 q 683 256 683 340 m 553 267 q 504 383 553 342 q 371 425 456 425 l 354 425 q 221 383 269 425 q 172 267 172 342 q 220 150 172 196 q 363 104 268 104 q 505 150 457 104 q 553 267 553 196 m 521 668 q 481 765 521 725 q 363 804 442 804 q 244 765 283 804 q 204 668 204 725 q 244 572 204 607 q 354 538 283 538 l 371 538 q 481 572 442 538 q 521 668 521 607 z "},"9":{"ha":725,"x_min":35,"x_max":679,"o":"m 222 0 l 429 313 l 429 315 q 378 295 406 303 q 322 288 351 288 q 206 311 258 288 q 115 376 153 335 q 56 474 76 418 q 35 593 35 529 l 35 606 q 58 735 35 676 q 124 837 82 794 q 226 903 167 879 q 357 926 286 926 q 488 903 428 926 q 590 837 547 879 q 656 735 632 794 q 679 606 679 676 l 679 600 q 659 476 679 533 q 593 347 639 418 l 368 0 l 222 0 m 546 606 q 495 750 546 696 q 357 804 444 804 q 219 750 269 804 q 168 606 168 696 l 168 597 q 219 453 168 507 q 357 400 269 400 q 494 454 443 400 q 546 597 546 508 l 546 606 z "}," ":{"ha":369,"x_min":0,"x_max":0,"o":""},"!":{"ha":367,"x_min":92,"x_max":275,"o":"m 183 -18 q 118 8 144 -18 q 92 74 92 35 q 118 139 92 113 q 183 165 144 165 q 249 139 222 165 q 275 74 275 113 q 249 8 275 35 q 183 -18 222 -18 m 128 264 l 108 908 l 258 908 l 239 264 l 128 264 z "},"\"":{"ha":544,"x_min":86,"x_max":457,"o":"m 107 546 l 86 908 l 229 908 l 208 546 l 107 546 m 335 546 l 314 908 l 457 908 l 436 546 l 335 546 z "},"#":{"ha":808,"x_min":51,"x_max":757,"o":"m 438 0 l 468 221 l 275 221 l 244 0 l 143 0 l 174 221 l 51 221 l 65 319 l 188 319 l 225 589 l 103 589 l 117 688 l 239 688 l 269 908 l 371 908 l 340 688 l 533 688 l 564 908 l 665 908 l 635 688 l 757 688 l 743 589 l 621 589 l 583 319 l 706 319 l 692 221 l 569 221 l 539 0 l 438 0 m 519 589 l 326 589 l 289 319 l 482 319 l 519 589 z "},"$":{"ha":725,"x_min":54,"x_max":668,"o":"m 324 -97 l 324 7 q 215 31 264 11 q 131 85 167 51 q 76 164 96 118 q 54 267 56 210 l 185 267 q 222 169 186 206 q 321 125 257 133 l 324 125 l 324 401 q 232 422 278 410 q 151 460 186 435 q 93 528 115 486 q 71 639 71 571 q 89 739 71 693 q 140 819 107 785 q 220 874 174 853 q 324 900 267 894 l 324 1006 l 406 1006 l 406 900 q 581 820 514 888 q 651 649 647 753 l 524 649 q 491 737 521 701 q 408 782 461 772 l 406 782 l 406 513 q 499 492 453 504 q 583 454 546 479 q 644 386 621 429 q 668 274 668 343 q 649 170 668 217 q 595 89 629 124 q 513 33 561 54 q 406 7 464 13 l 406 -97 l 324 -97 m 536 269 q 499 349 536 325 q 408 386 461 374 l 406 386 l 406 126 l 408 126 q 503 172 469 136 q 536 269 536 208 m 201 642 q 236 564 201 588 q 321 528 271 540 l 324 528 l 324 782 l 321 782 q 233 735 264 772 q 201 642 201 699 z "},"%":{"ha":950,"x_min":40,"x_max":910,"o":"m 135 0 l 711 908 l 813 908 l 236 0 l 135 0 m 254 496 q 171 513 210 496 q 103 560 132 531 q 57 628 74 589 q 40 711 40 667 q 57 794 40 756 q 103 863 74 833 q 171 909 132 892 q 254 926 210 926 q 338 909 299 926 q 407 863 378 892 q 453 794 436 833 q 469 711 469 756 q 453 628 469 667 q 407 560 436 589 q 338 513 378 531 q 254 496 299 496 m 254 585 q 342 622 307 585 q 378 711 378 658 q 342 801 378 764 q 254 838 307 838 q 166 801 201 838 q 131 711 131 764 q 166 622 131 658 q 254 585 201 585 m 696 -18 q 612 -1 651 -18 q 543 46 572 17 q 497 115 514 75 q 481 199 481 154 q 497 281 481 242 q 543 349 514 319 q 612 395 572 378 q 696 413 651 413 q 779 395 740 413 q 847 349 818 378 q 893 281 876 319 q 910 199 910 242 q 893 115 910 154 q 847 46 876 75 q 779 -1 818 17 q 696 -18 740 -18 m 696 71 q 744 81 722 71 q 783 108 767 90 q 810 149 800 125 q 819 199 819 172 q 784 287 819 250 q 696 324 749 324 q 608 287 643 324 q 572 199 572 250 q 582 149 572 172 q 608 108 592 125 q 647 81 625 90 q 696 71 669 71 z "},"&":{"ha":786,"x_min":43,"x_max":743,"o":"m 585 425 l 585 422 q 660 354 633 397 q 686 247 686 311 q 663 138 686 186 q 598 54 640 89 q 497 1 556 19 q 365 -18 438 -18 q 234 1 293 -18 q 133 56 175 21 q 67 143 90 92 q 43 257 43 194 q 85 398 43 342 q 204 481 128 454 l 204 483 q 109 558 142 508 q 76 682 76 608 q 97 783 76 738 q 156 860 118 828 q 247 909 193 892 q 365 926 300 926 q 569 864 492 926 q 653 683 646 801 l 525 683 q 478 771 518 736 q 367 806 439 806 q 249 766 290 806 q 207 669 207 726 q 249 572 207 607 q 374 538 292 538 l 743 538 l 743 425 l 585 425 m 556 267 q 507 383 556 342 q 374 425 458 425 l 357 425 q 224 383 272 425 q 175 267 175 342 q 222 147 175 193 q 365 101 269 101 q 508 147 460 101 q 556 267 556 193 z "},"'":{"ha":317,"x_min":86,"x_max":229,"o":"m 107 546 l 86 908 l 229 908 l 208 546 l 107 546 z "},"(":{"ha":515,"x_min":78,"x_max":463,"o":"m 463 -304 q 303 -197 374 -261 q 182 -51 232 -133 q 105 129 132 31 q 78 342 78 228 q 105 554 78 456 q 182 735 132 653 q 303 881 232 817 q 463 988 374 944 l 463 863 q 273 658 344 788 q 201 342 201 529 q 273 25 201 154 q 463 -179 344 -104 l 463 -304 z "},")":{"ha":515,"x_min":53,"x_max":438,"o":"m 53 988 q 213 881 142 944 q 333 735 283 817 q 410 554 383 653 q 438 342 438 456 q 410 129 438 228 q 333 -51 383 31 q 213 -197 283 -133 q 53 -304 142 -261 l 53 -179 q 242 25 171 -104 q 314 342 314 154 q 242 658 314 529 q 53 863 171 788 l 53 988 z "},"*":{"ha":731,"x_min":46,"x_max":685,"o":"m 489 301 l 367 543 l 364 543 l 242 301 l 122 389 l 318 579 l 317 582 l 46 624 l 92 764 l 333 638 l 336 640 l 292 908 l 439 908 l 394 640 l 397 638 l 639 764 l 685 624 l 414 582 l 413 579 l 608 389 l 489 301 z "},"+":{"ha":781,"x_min":68,"x_max":713,"o":"m 333 42 l 333 307 l 68 307 l 68 421 l 333 421 l 333 686 l 447 686 l 447 421 l 713 421 l 713 307 l 447 307 l 447 42 l 333 42 z "},",":{"ha":344,"x_min":81,"x_max":264,"o":"m 88 -182 l 140 -11 q 97 22 114 -1 q 81 74 81 44 q 107 139 81 113 q 172 165 133 165 q 238 139 211 165 q 264 74 264 113 q 253 24 264 50 l 165 -182 l 88 -182 z "},"-":{"ha":481,"x_min":32,"x_max":449,"o":"m 32 314 l 32 440 l 449 440 l 449 314 l 32 314 z "},".":{"ha":344,"x_min":81,"x_max":264,"o":"m 172 -18 q 107 8 133 -18 q 81 74 81 35 q 107 139 81 113 q 172 165 133 165 q 238 139 211 165 q 264 74 264 113 q 238 8 264 35 q 172 -18 211 -18 z "},"/":{"ha":592,"x_min":-4,"x_max":567,"o":"m -4 -139 l 446 908 l 567 908 l 118 -139 l -4 -139 z "},":":{"ha":344,"x_min":81,"x_max":264,"o":"m 172 -18 q 107 8 133 -18 q 81 74 81 35 q 107 139 81 113 q 172 165 133 165 q 238 139 211 165 q 264 74 264 113 q 238 8 264 35 q 172 -18 211 -18 m 172 469 q 107 496 133 469 q 81 561 81 522 q 107 626 81 600 q 172 653 133 653 q 238 626 211 653 q 264 561 264 600 q 238 496 264 522 q 172 469 211 469 z "},";":{"ha":344,"x_min":81,"x_max":264,"o":"m 88 -182 l 140 -11 q 97 22 114 -1 q 81 74 81 44 q 107 139 81 113 q 172 165 133 165 q 238 139 211 165 q 264 74 264 113 q 253 24 264 50 l 165 -182 l 88 -182 m 172 469 q 107 496 133 469 q 81 561 81 522 q 107 626 81 600 q 172 653 133 653 q 238 626 211 653 q 264 561 264 600 q 238 496 264 522 q 172 469 211 469 z "},"<":{"ha":781,"x_min":68,"x_max":713,"o":"m 68 308 l 68 419 l 713 690 l 713 565 l 213 365 l 213 363 l 713 163 l 713 38 l 68 308 z "},"=":{"ha":781,"x_min":68,"x_max":713,"o":"m 68 469 l 68 583 l 713 583 l 713 469 l 68 469 m 68 144 l 68 258 l 713 258 l 713 144 l 68 144 z "},">":{"ha":781,"x_min":68,"x_max":713,"o":"m 68 38 l 68 163 l 568 363 l 568 365 l 68 565 l 68 690 l 713 419 l 713 308 l 68 38 z "},"?":{"ha":650,"x_min":40,"x_max":610,"o":"m 222 264 l 222 281 q 241 379 222 340 q 288 445 260 418 q 349 492 317 472 q 410 534 382 513 q 458 584 439 556 q 476 657 476 613 q 433 766 476 728 q 321 804 390 804 q 209 765 254 804 q 164 654 164 726 l 164 643 l 40 643 l 40 658 q 62 769 40 719 q 122 854 83 819 q 212 908 160 889 q 325 926 264 926 q 440 908 388 926 q 529 855 492 889 q 588 771 567 821 q 610 658 610 721 q 590 551 610 593 q 541 482 571 510 q 477 435 511 454 q 413 395 443 415 q 364 349 383 375 q 344 281 344 322 l 344 264 l 222 264 m 286 -18 q 221 8 247 -18 q 194 74 194 35 q 221 139 194 113 q 286 165 247 165 q 351 139 324 165 q 378 74 378 113 q 351 8 378 35 q 286 -18 324 -18 z "},"@":{"ha":1064,"x_min":54,"x_max":1010,"o":"m 626 315 q 547 241 593 268 q 443 214 500 214 q 332 262 368 214 q 296 379 296 310 q 314 483 296 428 q 365 584 332 538 q 446 661 399 631 q 553 692 493 692 q 638 663 604 692 q 679 588 671 635 l 682 588 l 708 674 l 793 674 l 713 382 q 707 344 707 364 q 754 299 707 299 q 814 317 783 299 q 868 369 844 336 q 907 450 892 403 q 922 554 922 497 q 903 666 922 610 q 842 766 883 722 q 733 838 800 810 q 574 865 667 865 q 402 833 481 865 q 266 743 324 800 q 176 608 208 686 q 144 438 144 529 q 173 277 144 350 q 253 152 201 204 q 379 72 306 100 q 544 43 453 43 q 699 65 626 43 q 825 125 771 88 l 818 36 q 688 -19 758 0 q 542 -37 617 -37 q 344 -2 433 -37 q 190 96 254 33 q 90 244 125 158 q 54 433 54 331 q 93 637 54 543 q 202 799 132 731 q 367 907 272 868 q 575 946 463 946 q 770 911 688 946 q 906 820 853 876 q 984 693 958 764 q 1010 550 1010 622 q 988 418 1010 479 q 928 312 965 357 q 841 240 890 267 q 738 214 792 214 q 662 238 693 214 q 629 315 631 263 l 626 315 m 478 299 q 547 318 515 299 q 600 368 578 338 q 635 435 622 399 q 647 503 647 471 q 624 577 647 547 q 558 607 601 607 q 489 585 519 607 q 437 532 458 564 q 403 463 415 500 q 392 394 392 425 q 412 326 392 353 q 478 299 432 299 z "},"A":{"ha":933,"x_min":71,"x_max":861,"o":"m 719 0 l 719 288 l 208 288 l 208 0 l 71 0 l 71 535 q 97 697 71 625 q 172 821 122 769 q 295 899 222 872 q 464 926 368 926 q 634 899 560 926 q 759 821 708 872 q 835 697 810 769 q 861 535 861 625 l 861 0 l 719 0 m 719 535 q 656 727 719 658 q 464 796 592 796 q 272 727 336 796 q 208 535 208 658 l 208 418 l 719 418 l 719 535 z "},"B":{"ha":867,"x_min":93,"x_max":831,"o":"m 93 0 l 93 908 l 531 908 q 642 891 593 908 q 723 842 690 874 q 772 769 756 811 q 789 675 789 726 q 756 552 789 604 q 664 472 724 500 l 664 469 q 787 386 743 446 q 831 243 831 326 q 813 146 831 190 q 763 69 796 101 q 680 18 729 36 q 567 0 631 0 l 93 0 m 235 397 l 235 131 l 543 131 q 651 168 618 131 q 685 264 685 206 q 649 359 685 321 q 546 397 613 397 l 235 397 m 235 778 l 235 528 l 515 528 q 615 563 581 528 q 649 653 649 599 q 617 742 649 707 q 513 778 586 778 l 235 778 z "},"C":{"ha":1043,"x_min":47,"x_max":996,"o":"m 846 590 q 727 740 810 683 q 531 796 644 796 q 392 770 456 796 q 285 699 329 744 q 215 590 240 653 q 190 454 190 528 q 215 318 190 381 q 285 210 240 256 q 392 138 329 164 q 531 113 456 113 q 727 169 644 113 q 846 318 810 225 l 996 318 q 933 181 975 243 q 830 75 890 119 q 694 6 769 31 q 531 -18 618 -18 q 335 17 424 -18 q 183 116 247 53 q 83 265 118 179 q 47 454 47 351 q 83 642 47 556 q 183 792 118 729 q 335 891 247 856 q 531 926 424 926 q 694 902 618 926 q 830 833 769 878 q 933 727 890 789 q 996 590 975 665 l 846 590 z "},"D":{"ha":947,"x_min":93,"x_max":900,"o":"m 93 0 l 93 908 l 417 908 q 626 876 535 908 q 777 783 717 843 q 869 640 838 724 q 900 454 900 556 q 869 268 900 351 q 777 125 838 185 q 626 33 717 65 q 417 0 535 0 l 93 0 m 417 131 q 568 153 504 131 q 674 219 632 176 q 736 321 715 261 q 757 454 757 381 q 736 588 757 528 q 674 690 715 647 q 568 755 632 732 q 417 778 504 778 l 235 778 l 235 131 l 417 131 z "},"E":{"ha":825,"x_min":93,"x_max":761,"o":"m 235 397 l 235 131 l 761 131 l 761 0 l 93 0 l 93 908 l 761 908 l 761 778 l 235 778 l 235 528 l 681 528 l 681 397 l 235 397 z "},"F":{"ha":790,"x_min":93,"x_max":750,"o":"m 93 0 l 93 908 l 750 908 l 750 778 l 235 778 l 235 528 l 669 528 l 669 397 l 235 397 l 235 0 l 93 0 z "},"G":{"ha":1051,"x_min":47,"x_max":1013,"o":"m 829 622 q 712 749 789 703 q 531 796 635 796 q 392 770 456 796 q 285 699 329 744 q 215 590 240 653 q 190 454 190 528 q 215 318 190 381 q 285 210 240 256 q 392 138 329 164 q 531 113 456 113 q 743 174 657 113 q 860 344 829 236 l 860 347 l 475 347 l 475 478 l 1013 478 l 1013 408 q 966 237 1004 315 q 864 102 928 158 q 715 14 800 46 q 531 -18 631 -18 q 335 17 424 -18 q 183 116 247 53 q 83 265 118 179 q 47 454 47 351 q 83 642 47 556 q 183 792 118 729 q 335 891 247 856 q 531 926 424 926 q 686 905 614 926 q 817 843 758 883 q 918 747 875 803 q 986 622 961 690 l 829 622 z "},"H":{"ha":976,"x_min":93,"x_max":883,"o":"m 742 0 l 742 396 l 235 396 l 235 0 l 93 0 l 93 908 l 235 908 l 235 526 l 742 526 l 742 908 l 883 908 l 883 0 l 742 0 z "},"I":{"ha":333,"x_min":96,"x_max":238,"o":"m 96 0 l 96 908 l 238 908 l 238 0 l 96 0 z "},"J":{"ha":793,"x_min":35,"x_max":721,"o":"m 579 908 l 721 908 l 721 321 q 698 181 721 243 q 631 74 675 118 q 523 6 588 31 q 375 -18 458 -18 q 122 74 210 -18 q 35 321 35 165 l 35 329 l 172 329 l 172 321 q 223 168 172 224 q 375 113 274 113 q 528 167 476 113 q 579 321 579 222 l 579 908 z "},"K":{"ha":826,"x_min":93,"x_max":803,"o":"m 93 0 l 93 908 l 235 908 l 235 497 l 238 497 l 610 908 l 789 908 l 368 461 l 803 0 l 619 0 l 238 421 l 235 421 l 235 0 l 93 0 z "},"L":{"ha":781,"x_min":93,"x_max":744,"o":"m 93 0 l 93 908 l 235 908 l 235 131 l 744 131 l 744 0 l 93 0 z "},"M":{"ha":1292,"x_min":72,"x_max":1219,"o":"m 214 0 l 72 0 l 72 593 q 97 740 72 678 q 163 844 121 803 q 261 906 204 886 q 383 926 318 926 q 541 888 474 926 q 644 776 608 850 l 647 776 q 751 888 683 850 q 908 926 818 926 q 1032 906 975 926 q 1131 844 1089 886 q 1196 740 1172 803 q 1219 593 1219 678 l 1219 0 l 1078 0 l 1078 593 q 1027 747 1078 697 q 897 796 976 796 q 768 746 819 796 q 717 593 717 696 l 717 0 l 575 0 l 575 593 q 524 746 575 696 q 394 796 474 796 q 265 747 317 796 q 214 593 214 697 l 214 0 z "},"N":{"ha":913,"x_min":72,"x_max":840,"o":"m 699 0 l 699 550 q 638 731 699 665 q 456 796 576 796 q 275 731 336 796 q 214 550 214 665 l 214 0 l 72 0 l 72 550 q 97 706 72 636 q 172 824 122 775 q 292 900 221 874 q 456 926 364 926 q 620 900 549 926 q 740 824 692 874 q 815 706 789 775 q 840 550 840 636 l 840 0 l 699 0 z "},"O":{"ha":1061,"x_min":47,"x_max":1014,"o":"m 1014 454 q 978 265 1014 351 q 878 116 943 179 q 725 17 814 53 q 531 -18 636 -18 q 335 17 424 -18 q 183 116 247 53 q 83 265 118 179 q 47 454 47 351 q 83 642 47 556 q 183 792 118 729 q 335 891 247 856 q 531 926 424 926 q 725 891 636 926 q 878 792 814 856 q 978 642 943 729 q 1014 454 1014 556 m 531 113 q 669 138 606 113 q 776 210 732 164 q 846 318 821 256 q 871 454 871 381 q 846 590 871 528 q 776 699 821 653 q 669 770 732 744 q 531 796 606 796 q 392 770 456 796 q 285 699 329 744 q 215 590 240 653 q 190 454 190 528 q 215 318 190 381 q 285 210 240 256 q 392 138 329 164 q 531 113 456 113 z "},"P":{"ha":833,"x_min":93,"x_max":804,"o":"m 93 0 l 93 908 l 474 908 q 622 886 560 908 q 725 824 685 864 q 785 728 765 783 q 804 610 804 674 q 785 490 804 544 q 725 395 765 435 q 622 333 685 356 q 474 310 560 310 l 235 310 l 235 0 l 93 0 m 476 440 q 619 488 578 440 q 661 610 661 536 q 619 730 661 682 q 476 778 578 778 l 235 778 l 235 440 l 476 440 z "},"Q":{"ha":1061,"x_min":47,"x_max":1026,"o":"m 1014 454 q 971 247 1014 340 q 850 90 928 154 l 1026 -143 l 863 -143 l 740 24 q 641 -7 693 4 q 531 -18 589 -18 q 335 17 424 -18 q 183 116 247 53 q 83 265 118 179 q 47 454 47 351 q 83 642 47 556 q 183 792 118 729 q 335 891 247 856 q 531 926 424 926 q 725 891 636 926 q 878 792 814 856 q 978 642 943 729 q 1014 454 1014 556 m 531 113 q 657 133 599 113 l 657 136 l 499 339 l 663 339 l 767 200 q 843 310 815 246 q 871 454 871 375 q 846 590 871 528 q 776 699 821 653 q 669 770 732 744 q 531 796 606 796 q 392 770 456 796 q 285 699 329 744 q 215 590 240 653 q 190 454 190 528 q 215 318 190 381 q 285 210 240 256 q 392 138 329 164 q 531 113 456 113 z "},"R":{"ha":871,"x_min":93,"x_max":838,"o":"m 668 0 l 451 325 l 235 325 l 235 0 l 93 0 l 93 908 l 483 908 q 628 886 567 908 q 728 825 689 864 q 785 733 767 786 q 804 617 804 679 q 755 440 804 514 q 599 338 706 365 l 599 335 l 838 0 l 668 0 m 485 456 q 568 468 535 456 q 622 502 601 481 q 652 553 643 524 q 661 617 661 582 q 652 681 661 651 q 622 733 643 711 q 567 766 601 754 q 485 778 533 778 l 235 778 l 235 456 l 485 456 z "},"S":{"ha":765,"x_min":46,"x_max":717,"o":"m 564 654 q 515 755 561 715 q 385 794 469 794 q 250 753 297 794 q 203 650 203 713 q 241 571 203 596 q 336 533 279 546 q 460 510 393 521 q 583 476 526 500 q 678 402 640 451 q 717 263 717 353 q 692 145 717 197 q 624 56 668 93 q 519 0 581 19 q 381 -19 457 -19 q 244 0 306 -19 q 140 55 183 19 q 72 142 96 90 q 46 258 47 193 l 186 258 q 238 151 189 192 q 381 111 288 111 q 527 151 476 111 q 578 258 578 192 q 556 322 578 299 q 498 360 533 346 q 416 381 463 374 q 322 398 369 389 q 228 422 274 407 q 147 463 182 436 q 89 534 111 490 q 67 646 67 578 q 89 760 67 708 q 153 848 111 811 q 253 905 194 885 q 382 925 311 925 q 509 906 451 925 q 608 851 567 886 q 673 765 650 815 q 699 654 696 715 l 564 654 z "},"T":{"ha":793,"x_min":38,"x_max":756,"o":"m 325 0 l 325 778 l 38 778 l 38 908 l 756 908 l 756 778 l 467 778 l 467 0 l 325 0 z "},"U":{"ha":906,"x_min":72,"x_max":835,"o":"m 697 908 l 835 908 l 835 358 q 810 203 835 272 q 737 84 785 133 q 618 8 689 35 q 456 -18 547 -18 q 292 8 364 -18 q 172 83 221 35 q 97 202 122 132 q 72 358 72 272 l 72 908 l 214 908 l 214 358 q 274 178 214 243 q 456 113 335 113 q 637 178 576 113 q 697 358 697 243 l 697 908 z "},"V":{"ha":904,"x_min":31,"x_max":874,"o":"m 375 0 l 31 908 l 185 908 l 453 168 l 456 168 l 724 908 l 874 908 l 531 0 l 375 0 z "},"W":{"ha":1292,"x_min":72,"x_max":1219,"o":"m 1078 908 l 1219 908 l 1219 315 q 1195 168 1219 231 q 1129 64 1171 106 q 1031 2 1088 22 q 908 -18 974 -18 q 751 20 818 -18 q 647 132 683 58 l 644 132 q 541 20 608 58 q 383 -18 474 -18 q 260 2 317 -18 q 161 64 203 22 q 96 168 119 106 q 72 315 72 231 l 72 908 l 214 908 l 214 315 q 265 162 214 211 q 394 113 315 113 q 524 163 472 113 q 575 315 575 213 l 575 908 l 717 908 l 717 315 q 767 163 717 213 q 897 113 818 113 q 1026 162 975 113 q 1078 315 1078 211 l 1078 908 z "},"X":{"ha":899,"x_min":26,"x_max":872,"o":"m 26 0 l 354 464 l 42 908 l 211 908 l 450 551 l 453 551 l 693 908 l 858 908 l 544 465 l 872 0 l 703 0 l 449 379 l 446 379 l 192 0 l 26 0 z "},"Y":{"ha":903,"x_min":22,"x_max":881,"o":"m 382 0 l 382 389 l 22 908 l 192 908 l 451 514 l 454 514 l 715 908 l 881 908 l 524 393 l 524 0 l 382 0 z "},"Z":{"ha":838,"x_min":60,"x_max":771,"o":"m 235 133 l 235 131 l 771 131 l 771 0 l 60 0 l 60 125 l 582 775 l 582 778 l 81 778 l 81 908 l 757 908 l 757 783 l 235 133 z "},"[":{"ha":515,"x_min":117,"x_max":475,"o":"m 117 -274 l 117 957 l 475 957 l 475 850 l 240 850 l 240 -167 l 475 -167 l 475 -274 l 117 -274 z "},"\\":{"ha":592,"x_min":25,"x_max":596,"o":"m 474 -139 l 25 908 l 146 908 l 596 -139 l 474 -139 z "},"]":{"ha":515,"x_min":40,"x_max":399,"o":"m 399 957 l 399 -274 l 40 -274 l 40 -167 l 275 -167 l 275 850 l 40 850 l 40 957 l 399 957 z "},"^":{"ha":781,"x_min":40,"x_max":740,"o":"m 40 319 l 332 908 l 443 908 l 740 319 l 611 319 l 389 772 l 386 772 l 169 319 l 40 319 z "},"_":{"ha":694,"x_min":0,"x_max":694,"o":"m 0 -189 l 0 -104 l 694 -104 l 694 -189 l 0 -189 z "},"`":{"ha":444,"x_min":79,"x_max":364,"o":"m 250 786 l 79 1000 l 218 1000 l 364 786 l 250 786 z "},"a":{"ha":844,"x_min":40,"x_max":776,"o":"m 776 0 l 656 0 l 656 143 l 653 143 q 552 26 621 69 q 388 -18 483 -18 q 258 6 321 -18 q 147 75 196 29 q 69 188 99 121 q 40 343 40 256 q 67 488 40 421 q 144 602 94 554 q 260 677 193 650 q 410 704 328 704 q 558 678 490 704 q 674 603 626 651 q 749 488 722 556 q 776 338 776 419 l 776 0 m 410 104 q 506 122 463 104 q 581 172 550 140 q 629 247 613 203 q 646 343 646 290 q 629 439 646 394 q 581 515 613 483 q 506 564 550 546 q 410 582 463 582 q 313 564 357 582 q 238 515 269 546 q 190 439 207 483 q 174 343 174 394 q 190 247 174 290 q 238 172 207 203 q 313 122 269 140 q 410 104 357 104 z "},"b":{"ha":844,"x_min":68,"x_max":804,"o":"m 435 104 q 531 122 488 104 q 606 172 575 140 q 654 247 638 203 q 671 343 671 290 q 654 439 671 394 q 606 515 638 483 q 531 564 575 546 q 435 582 488 582 q 339 564 382 582 q 265 515 296 546 q 217 439 233 483 q 200 343 200 394 q 217 247 200 290 q 265 172 233 203 q 339 122 296 140 q 435 104 382 104 m 68 986 l 200 986 l 200 569 l 203 569 q 305 668 239 632 q 458 704 371 704 q 587 681 525 704 q 697 611 649 657 q 775 498 746 565 q 804 343 804 431 q 777 199 804 265 q 701 84 750 132 q 583 9 651 36 q 435 -18 515 -18 q 285 8 353 -18 q 170 83 218 35 q 95 198 122 131 q 68 349 68 265 l 68 986 z "},"c":{"ha":806,"x_min":40,"x_max":764,"o":"m 631 438 q 548 543 606 504 q 410 582 490 582 q 313 564 357 582 q 238 515 269 546 q 190 439 207 483 q 174 343 174 394 q 190 247 174 290 q 238 172 207 203 q 313 122 269 140 q 410 104 357 104 q 548 143 490 104 q 631 249 606 182 l 764 249 q 719 140 750 189 q 642 56 688 92 q 537 1 596 21 q 410 -18 478 -18 q 260 9 328 -18 q 144 84 193 36 q 67 199 94 132 q 40 343 40 265 q 67 488 40 421 q 144 602 94 554 q 260 677 193 650 q 410 704 328 704 q 537 685 478 704 q 642 630 596 665 q 719 546 688 594 q 764 438 750 497 l 631 438 z "},"d":{"ha":844,"x_min":40,"x_max":776,"o":"m 410 104 q 506 122 463 104 q 580 172 549 140 q 628 247 611 203 q 644 343 644 290 q 628 439 644 394 q 580 515 611 483 q 506 564 549 546 q 410 582 463 582 q 313 564 357 582 q 238 515 269 546 q 190 439 207 483 q 174 343 174 394 q 190 247 174 290 q 238 172 207 203 q 313 122 269 140 q 410 104 357 104 m 776 349 q 749 198 776 265 q 674 83 722 131 q 558 8 626 35 q 410 -18 490 -18 q 260 9 328 -18 q 144 84 193 36 q 67 199 94 132 q 40 343 40 265 q 69 498 40 431 q 147 611 99 565 q 258 681 196 657 q 386 704 319 704 q 540 668 474 704 q 642 569 606 632 l 644 569 l 644 986 l 776 986 l 776 349 z "},"e":{"ha":817,"x_min":40,"x_max":776,"o":"m 179 294 l 179 292 q 255 155 194 206 q 410 104 315 104 q 601 192 543 104 l 747 192 q 619 39 707 96 q 410 -18 531 -18 q 260 9 328 -18 q 144 84 193 36 q 67 199 94 132 q 40 343 40 265 q 67 488 40 421 q 144 602 94 554 q 260 677 193 650 q 410 704 328 704 q 558 677 490 704 q 674 602 626 650 q 749 488 722 554 q 776 343 776 421 l 776 294 l 179 294 m 410 582 q 263 537 322 582 q 183 415 203 492 l 183 413 l 638 413 l 638 415 q 558 537 618 492 q 410 582 497 582 z "},"f":{"ha":676,"x_min":90,"x_max":681,"o":"m 90 0 l 90 707 q 112 838 90 782 q 172 930 133 893 q 265 985 211 967 q 386 1004 319 1004 q 506 985 451 1004 q 599 929 560 967 q 659 836 638 892 q 681 707 681 781 l 681 706 l 550 706 l 550 707 q 505 840 550 799 q 386 882 460 882 q 267 840 311 882 q 222 707 222 799 l 222 592 l 599 592 l 599 471 l 222 471 l 222 0 l 90 0 z "},"g":{"ha":844,"x_min":40,"x_max":776,"o":"m 646 124 l 643 124 q 541 24 607 61 q 388 -12 475 -12 q 258 10 321 -12 q 147 78 196 33 q 69 189 99 122 q 40 343 40 256 q 67 488 40 421 q 144 602 94 554 q 260 677 193 650 q 410 704 328 704 q 558 678 490 704 q 674 603 626 651 q 749 488 722 556 q 776 338 776 421 l 776 56 q 748 -113 776 -43 q 670 -227 719 -183 q 555 -291 621 -271 q 413 -311 489 -311 q 194 -256 286 -311 q 65 -82 101 -201 l 200 -82 q 281 -169 224 -142 q 413 -196 338 -196 q 508 -183 465 -196 q 582 -140 551 -169 q 629 -64 613 -111 q 646 50 646 -17 l 646 124 m 646 343 q 629 439 646 394 q 581 515 613 483 q 506 564 550 546 q 410 582 463 582 q 313 564 357 582 q 238 515 269 546 q 190 439 207 483 q 174 343 174 394 q 190 248 174 290 q 238 175 207 206 q 313 128 269 144 q 410 111 357 111 q 506 128 463 111 q 581 175 550 144 q 629 248 613 206 q 646 343 646 290 z "},"h":{"ha":836,"x_min":90,"x_max":768,"o":"m 429 582 q 280 525 338 582 q 222 357 222 468 l 222 0 l 90 0 l 90 986 l 222 986 l 222 579 l 225 579 q 315 671 257 638 q 451 704 374 704 q 573 684 515 704 q 674 621 631 664 q 742 513 717 578 q 768 357 768 447 l 768 0 l 636 0 l 636 357 q 580 526 636 469 q 429 582 524 582 z "},"i":{"ha":317,"x_min":67,"x_max":250,"o":"m 158 783 q 94 810 121 783 q 67 876 67 838 q 94 941 67 914 q 158 968 121 968 q 224 941 197 968 q 250 876 250 914 q 224 810 250 838 q 158 783 197 783 m 93 0 l 93 686 l 225 686 l 225 0 l 93 0 z "},"j":{"ha":317,"x_min":-39,"x_max":250,"o":"m 158 783 q 94 810 121 783 q 67 876 67 838 q 94 941 67 914 q 158 968 121 968 q 224 941 197 968 q 250 876 250 914 q 224 810 250 838 q 158 783 197 783 m -39 -303 l -39 -189 l -24 -189 q 67 -158 40 -189 q 93 -54 93 -128 l 93 686 l 225 686 l 225 -46 q 171 -238 225 -174 q -11 -303 117 -303 l -39 -303 z "},"k":{"ha":746,"x_min":90,"x_max":724,"o":"m 90 0 l 90 986 l 222 986 l 222 385 l 225 385 l 538 686 l 711 686 l 353 351 l 724 0 l 547 0 l 225 317 l 222 317 l 222 0 l 90 0 z "},"l":{"ha":317,"x_min":93,"x_max":225,"o":"m 93 0 l 93 986 l 225 986 l 225 0 l 93 0 z "},"m":{"ha":1186,"x_min":68,"x_max":1118,"o":"m 528 0 l 528 397 q 481 537 528 492 q 364 582 435 582 q 246 538 292 582 q 200 397 200 493 l 200 0 l 68 0 l 68 397 q 90 534 68 476 q 149 629 111 592 q 239 685 188 667 q 351 704 290 704 q 493 670 431 704 q 592 571 556 636 l 594 571 q 692 670 631 636 q 835 704 754 704 q 947 685 894 704 q 1037 629 999 667 q 1097 534 1075 592 q 1118 397 1118 476 l 1118 0 l 986 0 l 986 397 q 940 538 986 493 q 822 582 894 582 q 706 537 751 582 q 660 397 660 492 l 660 0 l 528 0 z "},"n":{"ha":814,"x_min":68,"x_max":746,"o":"m 614 0 l 614 357 q 558 526 614 469 q 407 582 501 582 q 256 526 313 582 q 200 357 200 469 l 200 0 l 68 0 l 68 357 q 92 508 68 443 q 161 616 117 572 q 268 682 206 660 q 407 704 331 704 q 546 683 483 704 q 653 617 608 661 q 722 508 697 574 q 746 357 746 443 l 746 0 l 614 0 z "},"o":{"ha":819,"x_min":40,"x_max":779,"o":"m 779 343 q 752 199 779 265 q 676 84 725 132 q 558 9 626 36 q 410 -18 490 -18 q 260 9 328 -18 q 144 84 193 36 q 67 199 94 132 q 40 343 40 265 q 67 488 40 421 q 144 602 94 554 q 260 677 193 650 q 410 704 328 704 q 558 677 490 704 q 676 602 626 650 q 752 488 725 554 q 779 343 779 421 m 410 104 q 506 122 463 104 q 581 172 550 140 q 629 247 613 203 q 646 343 646 290 q 629 439 646 394 q 581 515 613 483 q 506 564 550 546 q 410 582 463 582 q 313 564 357 582 q 238 515 269 546 q 190 439 207 483 q 174 343 174 394 q 190 247 174 290 q 238 172 207 203 q 313 122 269 140 q 410 104 357 104 z "},"p":{"ha":844,"x_min":68,"x_max":804,"o":"m 435 582 q 339 564 382 582 q 265 515 296 546 q 217 439 233 483 q 200 343 200 394 q 217 247 200 290 q 265 172 233 203 q 339 122 296 140 q 435 104 382 104 q 531 122 488 104 q 606 172 575 140 q 654 247 638 203 q 671 343 671 290 q 654 439 671 394 q 606 515 638 483 q 531 564 575 546 q 435 582 488 582 m 68 338 q 95 488 68 421 q 170 603 122 556 q 285 678 218 651 q 435 704 353 704 q 583 677 515 704 q 701 602 651 650 q 777 488 750 554 q 804 343 804 421 q 775 188 804 256 q 697 75 746 121 q 587 6 649 29 q 458 -18 525 -18 q 305 18 371 -18 q 203 117 239 54 l 200 117 l 200 -293 l 68 -293 l 68 338 z "},"q":{"ha":844,"x_min":40,"x_max":776,"o":"m 410 582 q 313 564 357 582 q 238 515 269 546 q 190 439 207 483 q 174 343 174 394 q 190 247 174 290 q 238 172 207 203 q 313 122 269 140 q 410 104 357 104 q 506 122 463 104 q 580 172 549 140 q 628 247 611 203 q 644 343 644 290 q 628 439 644 394 q 580 515 611 483 q 506 564 549 546 q 410 582 463 582 m 776 -293 l 644 -293 l 644 117 l 642 117 q 540 18 606 54 q 386 -18 474 -18 q 258 6 319 -18 q 147 75 196 29 q 69 188 99 121 q 40 343 40 256 q 67 488 40 421 q 144 602 94 554 q 260 677 193 650 q 410 704 328 704 q 558 678 490 704 q 674 603 626 651 q 749 488 722 556 q 776 338 776 421 l 776 -293 z "},"r":{"ha":681,"x_min":68,"x_max":658,"o":"m 528 396 l 528 404 q 482 540 528 499 q 364 582 436 582 q 245 540 290 582 q 200 404 200 499 l 200 0 l 68 0 l 68 404 q 90 537 68 481 q 150 631 111 593 q 243 686 189 668 q 364 704 297 704 q 483 686 429 704 q 576 631 538 668 q 637 536 615 593 q 658 403 658 479 l 658 396 l 528 396 z "},"s":{"ha":656,"x_min":43,"x_max":613,"o":"m 464 493 q 426 559 461 533 q 329 585 392 585 q 226 557 263 585 q 190 485 190 529 q 222 434 190 449 q 300 412 253 419 q 401 398 347 404 q 503 372 456 392 q 581 314 550 353 q 613 203 613 275 q 592 114 613 154 q 535 44 572 74 q 444 -1 497 15 q 328 -18 392 -18 q 211 -2 263 -18 q 123 43 160 14 q 65 112 86 72 q 43 199 44 151 l 176 199 q 217 128 179 156 q 326 101 256 101 q 441 130 403 101 q 479 203 479 158 q 448 254 479 239 q 369 276 417 269 q 268 290 322 283 q 167 317 214 297 q 88 374 119 336 q 57 485 57 413 q 76 572 57 532 q 130 642 94 613 q 215 688 165 671 q 326 704 265 704 q 437 688 388 704 q 521 642 486 671 q 574 576 556 614 q 594 493 593 538 l 464 493 z "},"t":{"ha":660,"x_min":68,"x_max":618,"o":"m 618 260 q 598 138 618 190 q 542 51 578 86 q 455 -1 506 17 q 343 -18 404 -18 q 231 -1 282 -18 q 144 51 181 17 q 88 138 108 86 q 68 260 68 190 l 68 921 l 200 921 l 200 686 l 578 686 l 578 565 l 200 565 l 200 260 q 239 141 200 178 q 343 104 278 104 q 448 140 408 104 q 488 260 488 176 l 488 275 l 618 275 l 618 260 z "},"u":{"ha":814,"x_min":68,"x_max":746,"o":"m 614 686 l 746 686 l 746 328 q 722 177 746 242 q 653 69 697 113 q 546 4 608 26 q 407 -18 483 -18 q 268 3 331 -18 q 161 69 206 25 q 92 177 117 113 q 68 328 68 242 l 68 686 l 200 686 l 200 328 q 256 160 200 215 q 407 104 313 104 q 558 160 501 104 q 614 328 614 215 l 614 686 z "},"v":{"ha":785,"x_min":26,"x_max":758,"o":"m 313 0 l 26 686 l 171 686 l 393 122 l 396 122 l 618 686 l 758 686 l 472 0 l 313 0 z "},"w":{"ha":1186,"x_min":68,"x_max":1118,"o":"m 658 686 l 658 289 q 705 149 658 194 q 822 104 751 104 q 940 149 894 104 q 986 289 986 193 l 986 686 l 1118 686 l 1118 289 q 1097 152 1118 210 q 1037 57 1075 94 q 947 1 999 19 q 835 -18 894 -18 q 693 16 756 -18 q 594 115 631 50 l 592 115 q 494 16 556 50 q 351 -18 432 -18 q 239 1 290 -18 q 149 57 188 19 q 90 152 111 94 q 68 289 68 210 l 68 686 l 200 686 l 200 289 q 246 149 200 193 q 364 104 292 104 q 481 149 435 104 q 526 289 526 194 l 526 686 l 658 686 z "},"x":{"ha":779,"x_min":22,"x_max":757,"o":"m 22 0 l 293 349 l 33 686 l 196 686 l 390 419 l 393 419 l 588 686 l 746 686 l 485 349 l 757 0 l 594 0 l 389 279 l 386 279 l 181 0 l 22 0 z "},"y":{"ha":836,"x_min":68,"x_max":746,"o":"m 407 111 q 556 168 499 111 q 614 335 614 225 l 614 686 l 746 686 l 746 24 q 719 -130 746 -67 q 647 -233 693 -193 q 538 -292 600 -274 q 404 -311 475 -311 q 291 -297 344 -311 q 194 -255 238 -283 q 120 -183 151 -226 q 74 -82 89 -140 l 206 -82 q 404 -196 253 -196 q 557 -146 500 -196 q 614 21 614 -96 l 614 114 l 611 114 q 521 21 579 54 q 385 -12 463 -12 q 263 8 321 -12 q 163 71 206 28 q 94 179 119 114 q 68 335 68 244 l 68 686 l 200 686 l 200 335 q 256 167 200 222 q 407 111 313 111 z "},"z":{"ha":742,"x_min":51,"x_max":683,"o":"m 51 0 l 51 108 l 490 565 l 490 568 l 72 568 l 72 686 l 669 686 l 669 578 l 231 121 l 231 118 l 683 118 l 683 0 l 51 0 z "},"{":{"ha":515,"x_min":67,"x_max":488,"o":"m 425 -274 q 228 -215 293 -274 q 164 -21 164 -157 l 164 225 q 103 288 164 288 l 67 288 l 67 396 l 103 396 q 164 458 164 396 l 164 704 q 228 899 164 840 q 425 957 293 957 l 488 957 l 488 851 l 424 851 q 323 817 358 851 q 288 713 288 783 l 288 465 q 266 383 288 415 q 199 343 244 350 l 199 340 q 266 300 244 332 q 288 218 288 268 l 288 -29 q 323 -134 288 -100 q 424 -168 358 -168 l 488 -168 l 488 -274 l 425 -274 z "},"|":{"ha":481,"x_min":189,"x_max":290,"o":"m 189 -293 l 189 1096 l 290 1096 l 290 -293 l 189 -293 z "},"}":{"ha":515,"x_min":28,"x_max":449,"o":"m 90 957 q 287 899 222 957 q 351 704 351 840 l 351 458 q 413 396 351 396 l 449 396 l 449 288 l 413 288 q 351 225 351 288 l 351 -21 q 287 -215 351 -157 q 90 -274 222 -274 l 28 -274 l 28 -168 l 92 -168 q 192 -134 157 -168 q 228 -29 228 -100 l 228 218 q 249 301 228 268 q 317 340 271 333 l 317 343 q 249 383 271 351 q 228 465 228 415 l 228 713 q 192 817 228 783 q 92 851 157 851 l 28 851 l 28 957 l 90 957 z "},"~":{"ha":781,"x_min":58,"x_max":722,"o":"m 722 483 q 669 299 719 363 q 532 236 619 236 q 442 257 479 236 q 374 303 404 278 q 317 350 344 329 q 257 371 289 371 q 192 340 217 371 q 165 243 168 308 l 58 243 q 111 428 61 365 q 249 492 161 492 q 339 470 301 492 q 406 424 376 449 q 464 377 436 399 q 524 356 492 356 q 588 387 564 356 q 615 483 613 418 l 722 483 z "}," ":{"ha":369,"x_min":0,"x_max":0,"o":""},"¡":{"ha":367,"x_min":92,"x_max":275,"o":"m 183 633 q 249 607 222 633 q 275 542 275 581 q 249 476 275 503 q 183 450 222 450 q 118 476 144 450 q 92 542 92 503 q 118 607 92 581 q 183 633 144 633 m 239 351 l 258 -293 l 108 -293 l 128 351 l 239 351 z "},"¢":{"ha":725,"x_min":38,"x_max":686,"o":"m 331 928 l 413 928 l 413 775 q 590 701 518 764 q 686 542 663 638 l 550 542 q 497 613 532 585 q 415 651 461 642 l 413 651 l 413 260 l 415 260 q 497 298 461 269 q 550 369 532 326 l 686 369 q 590 210 663 274 q 413 135 518 147 l 413 -19 l 331 -19 l 331 135 q 211 167 265 140 q 118 235 157 193 q 58 334 79 278 q 38 456 38 390 q 58 576 38 521 q 118 674 79 632 q 211 743 157 717 q 331 776 265 769 l 331 928 m 169 456 q 213 324 169 378 q 328 258 257 271 l 331 258 l 331 651 l 328 651 q 213 587 257 640 q 169 456 169 533 z "},"£":{"ha":725,"x_min":68,"x_max":658,"o":"m 68 0 l 68 113 q 173 176 139 132 q 207 282 207 221 q 207 300 207 292 q 204 318 207 308 l 68 318 l 68 417 l 161 425 l 161 428 q 133 477 147 453 q 106 530 118 501 q 85 591 93 558 q 78 664 78 624 q 99 767 78 719 q 158 851 119 815 q 249 906 196 886 q 368 926 303 926 q 490 905 436 926 q 581 843 543 883 q 638 747 618 803 q 658 621 658 690 l 658 608 l 529 608 l 529 621 q 487 754 529 704 q 369 804 444 804 q 253 763 294 804 q 211 656 211 722 q 219 590 211 619 q 239 536 226 561 q 265 487 251 511 q 292 436 279 463 l 574 436 l 574 318 l 322 318 q 324 306 324 311 q 324 293 324 300 q 300 193 324 239 q 231 121 276 147 l 231 118 l 639 118 l 639 0 l 68 0 z "},"¤":{"ha":725,"x_min":29,"x_max":696,"o":"m 504 250 q 360 207 444 207 q 218 246 279 207 l 96 121 l 29 186 l 153 307 q 119 374 131 338 q 107 456 107 411 q 151 601 107 540 l 29 721 l 96 788 l 217 663 q 281 692 246 682 q 360 703 317 703 q 506 660 443 703 l 629 788 l 696 721 l 568 597 q 601 532 589 568 q 613 456 613 496 q 601 377 613 414 q 567 310 589 340 l 696 186 l 629 121 l 504 250 m 360 294 q 477 340 432 294 q 522 456 522 385 q 477 571 522 525 q 360 617 432 617 q 242 571 288 617 q 197 456 197 525 q 242 340 197 385 q 360 294 288 294 z "},"¥":{"ha":725,"x_min":13,"x_max":713,"o":"m 428 139 l 428 0 l 297 0 l 297 139 l 67 139 l 67 244 l 297 244 l 297 336 l 67 336 l 67 442 l 297 442 l 297 444 l 13 908 l 165 908 l 363 547 l 365 547 l 564 908 l 713 908 l 428 444 l 428 442 l 658 442 l 658 336 l 428 336 l 428 244 l 658 244 l 658 139 l 428 139 z "},"¦":{"ha":481,"x_min":189,"x_max":290,"o":"m 189 -293 l 189 263 l 290 263 l 290 -293 l 189 -293 m 189 540 l 189 1096 l 290 1096 l 290 540 l 189 540 z "},"§":{"ha":772,"x_min":74,"x_max":697,"o":"m 224 -39 q 267 -127 226 -93 q 381 -161 308 -161 q 498 -126 458 -161 q 538 -36 538 -92 q 503 29 538 8 q 417 62 469 50 q 306 85 365 74 q 194 121 246 96 q 108 192 142 146 q 74 322 74 239 q 113 441 74 393 q 214 514 151 489 l 214 517 q 133 577 165 538 q 100 692 100 617 q 121 787 100 743 q 180 861 142 831 q 272 909 218 892 q 389 926 325 926 q 506 910 453 926 q 596 863 558 893 q 655 789 633 832 q 678 694 676 746 l 547 694 q 503 783 544 749 q 390 817 463 817 q 273 782 313 817 q 233 692 233 747 q 267 626 233 647 q 353 594 301 606 q 465 571 406 582 q 577 535 525 560 q 663 463 629 510 q 697 333 697 417 q 658 214 697 263 q 557 142 619 165 l 557 139 q 638 78 606 118 q 671 -36 671 39 q 650 -132 671 -89 q 591 -206 629 -175 q 499 -253 553 -236 q 382 -271 446 -271 q 266 -254 318 -271 q 176 -207 214 -237 q 117 -133 138 -176 q 94 -39 96 -90 l 224 -39 m 572 325 q 556 392 572 365 q 512 434 539 418 q 449 460 485 450 q 375 476 414 469 q 312 465 343 475 q 256 438 281 456 q 215 392 231 419 q 200 331 200 365 q 216 263 200 289 q 259 221 232 238 q 322 195 286 204 q 396 179 357 186 q 460 190 428 181 q 517 218 492 200 q 557 263 542 236 q 572 325 572 289 z "},"¨":{"ha":444,"x_min":7,"x_max":438,"o":"m 357 801 q 300 825 324 801 q 276 883 276 849 q 300 940 276 917 q 357 964 324 964 q 414 940 390 964 q 438 883 438 917 q 414 825 438 849 q 357 801 390 801 m 89 801 q 31 825 54 801 q 7 883 7 849 q 31 940 7 917 q 89 964 54 964 q 146 940 122 964 q 169 883 169 917 q 146 825 169 849 q 89 801 122 801 z "},"©":{"ha":1061,"x_min":47,"x_max":1014,"o":"m 1014 454 q 978 265 1014 351 q 878 116 943 179 q 725 17 814 53 q 531 -18 636 -18 q 335 17 424 -18 q 183 116 247 53 q 83 265 118 179 q 47 454 47 351 q 83 642 47 556 q 183 792 118 729 q 335 891 247 856 q 531 926 424 926 q 725 891 636 926 q 878 792 814 856 q 978 642 943 729 q 1014 454 1014 556 m 678 521 q 620 588 658 564 q 531 613 582 613 q 415 569 460 613 q 371 454 371 525 q 415 340 371 383 q 531 296 460 296 q 620 320 582 296 q 678 388 658 344 l 764 388 q 682 261 744 310 q 531 213 619 213 q 431 231 476 213 q 353 281 386 249 q 301 358 319 314 q 283 454 283 401 q 301 550 283 506 q 353 627 319 594 q 431 678 386 660 q 531 696 476 696 q 682 647 619 696 q 764 521 744 599 l 678 521 m 928 454 q 899 610 928 539 q 817 734 869 682 q 692 815 765 786 q 531 844 618 844 q 369 815 443 844 q 244 734 296 786 q 163 610 192 682 q 133 454 133 539 q 163 298 133 369 q 244 174 192 226 q 369 93 296 122 q 531 64 442 64 q 692 93 619 64 q 817 174 765 122 q 899 298 869 226 q 928 454 928 369 z "},"ª":{"ha":611,"x_min":40,"x_max":543,"o":"m 451 446 l 451 542 l 449 542 q 377 463 425 493 q 272 433 329 433 q 189 449 231 433 q 114 494 147 464 q 60 572 81 525 q 40 681 40 618 q 59 778 40 733 q 111 856 78 824 q 191 908 144 889 q 293 926 238 926 q 394 908 349 926 q 474 858 440 890 q 525 779 507 825 q 543 678 543 733 l 543 446 l 451 446 m 54 253 l 54 340 l 543 340 l 543 253 l 54 253 m 293 529 q 401 572 360 529 q 442 681 442 614 q 401 790 442 747 q 293 832 360 832 q 185 790 226 832 q 143 681 143 747 q 185 572 143 614 q 293 529 226 529 z "},"«":{"ha":785,"x_min":74,"x_max":711,"o":"m 294 67 l 74 343 l 294 619 l 435 619 l 211 343 l 435 67 l 294 67 m 571 67 l 350 343 l 571 619 l 711 619 l 488 343 l 711 67 l 571 67 z "},"¬":{"ha":781,"x_min":68,"x_max":713,"o":"m 599 83 l 599 349 l 68 349 l 68 463 l 713 463 l 713 83 l 599 83 z "},"­":{"ha":481,"x_min":32,"x_max":449,"o":"m 32 314 l 32 440 l 449 440 l 449 314 l 32 314 z "},"®":{"ha":1061,"x_min":47,"x_max":1014,"o":"m 1014 454 q 978 265 1014 351 q 878 116 943 179 q 725 17 814 53 q 531 -18 636 -18 q 335 17 424 -18 q 183 116 247 53 q 83 265 118 179 q 47 454 47 351 q 83 642 47 556 q 183 792 118 729 q 335 891 247 856 q 531 926 424 926 q 725 891 636 926 q 878 792 814 856 q 978 642 943 729 q 1014 454 1014 556 m 928 454 q 899 610 928 539 q 817 734 869 682 q 692 815 765 786 q 531 844 618 844 q 369 815 443 844 q 244 734 296 786 q 163 610 192 682 q 133 454 133 539 q 163 298 133 369 q 244 174 192 226 q 369 93 296 122 q 531 64 442 64 q 692 93 619 64 q 817 174 765 122 q 899 298 869 226 q 928 454 928 369 m 653 226 l 539 382 l 433 382 l 433 226 l 347 226 l 347 682 l 581 682 q 699 641 656 682 q 742 533 742 600 q 713 440 742 478 q 632 388 685 401 l 632 385 l 757 226 l 653 226 m 433 607 l 433 457 l 572 457 q 633 478 614 457 q 653 532 653 499 q 633 586 653 565 q 572 607 614 607 l 433 607 z "},"¯":{"ha":444,"x_min":10,"x_max":435,"o":"m 10 814 l 10 907 l 435 907 l 435 814 l 10 814 z "},"°":{"ha":460,"x_min":40,"x_max":418,"o":"m 229 549 q 156 563 190 549 q 97 603 122 578 q 56 664 71 629 q 40 738 40 699 q 56 811 40 776 q 97 872 71 846 q 156 912 122 897 q 229 926 190 926 q 303 912 268 926 q 363 872 338 897 q 403 811 389 846 q 418 738 418 776 q 403 664 418 699 q 363 603 389 629 q 303 563 338 578 q 229 549 268 549 m 319 738 q 293 801 319 775 q 229 828 267 828 q 166 801 193 828 q 139 738 139 775 q 166 674 139 700 q 229 647 193 647 q 293 674 267 647 q 319 738 319 700 z "},"±":{"ha":781,"x_min":68,"x_max":713,"o":"m 68 10 l 68 122 l 333 122 l 333 338 l 68 338 l 68 451 l 333 451 l 333 693 l 447 693 l 447 451 l 713 451 l 713 338 l 447 338 l 447 122 l 713 122 l 713 10 l 68 10 z "},"²":{"ha":472,"x_min":54,"x_max":422,"o":"m 54 336 l 54 421 l 256 617 q 305 674 288 647 q 322 733 322 701 q 300 800 322 774 q 238 826 278 826 q 174 800 197 826 q 151 728 151 774 l 151 719 l 54 719 l 54 728 q 103 867 54 815 q 238 919 151 919 q 373 867 324 919 q 422 732 422 814 q 397 637 422 676 q 326 556 371 597 l 190 428 l 190 425 l 415 425 l 415 336 l 54 336 z "},"³":{"ha":472,"x_min":35,"x_max":432,"o":"m 160 594 l 160 681 l 226 681 q 292 700 271 681 q 314 754 314 719 q 293 806 314 785 q 232 828 272 828 q 173 807 193 828 q 150 754 153 786 l 56 754 q 106 877 58 835 q 233 919 154 919 q 363 877 314 919 q 413 763 413 835 q 340 640 413 674 l 340 638 q 408 586 385 621 q 432 499 432 551 q 376 372 432 418 q 233 325 321 325 q 91 372 146 325 q 35 504 36 418 l 132 504 q 158 442 132 467 q 232 418 185 418 q 306 442 279 418 q 332 506 332 467 q 306 571 332 547 q 225 594 279 594 l 160 594 z "},"´":{"ha":444,"x_min":79,"x_max":364,"o":"m 79 786 l 225 1000 l 364 1000 l 193 786 l 79 786 z "},"µ":{"ha":839,"x_min":92,"x_max":769,"o":"m 92 -293 l 92 686 l 224 686 l 224 329 q 281 161 224 218 q 431 104 339 104 q 581 160 525 104 q 638 329 638 217 l 638 686 l 769 686 l 769 329 q 744 174 769 239 q 675 65 718 108 q 574 2 632 22 q 453 -18 517 -18 q 316 15 374 -18 q 226 108 258 49 l 224 108 l 224 -293 l 92 -293 z "},"¶":{"ha":828,"x_min":51,"x_max":729,"o":"m 350 -239 l 350 279 q 225 310 281 285 q 131 377 169 336 q 72 473 93 418 q 51 593 51 528 q 75 719 51 661 q 142 819 99 776 q 248 885 186 861 q 388 908 310 908 l 729 908 l 729 -239 l 629 -239 l 629 814 l 450 814 l 450 -239 l 350 -239 z "},"·":{"ha":344,"x_min":81,"x_max":264,"o":"m 172 363 q 107 389 133 363 q 81 454 81 415 q 107 519 81 493 q 172 546 133 546 q 238 519 211 546 q 264 454 264 493 q 238 389 264 415 q 172 363 211 363 z "},"¸":{"ha":444,"x_min":72,"x_max":371,"o":"m 132 -121 l 182 0 l 261 0 l 226 -82 l 226 -83 q 242 -80 236 -81 q 257 -79 249 -79 q 340 -110 308 -79 q 371 -190 371 -140 q 331 -280 371 -249 q 221 -311 292 -311 q 115 -282 154 -311 q 72 -200 75 -253 l 164 -200 q 182 -229 167 -219 q 221 -239 197 -239 q 262 -228 246 -239 q 278 -192 278 -217 q 265 -160 278 -172 q 231 -149 251 -149 q 192 -158 210 -149 l 132 -121 z "},"¹":{"ha":472,"x_min":110,"x_max":325,"o":"m 226 336 l 226 819 l 110 819 l 110 908 l 325 908 l 325 336 l 226 336 z "},"º":{"ha":583,"x_min":40,"x_max":543,"o":"m 543 681 q 524 583 543 628 q 472 505 506 538 q 393 453 439 472 q 292 435 347 435 q 190 453 236 435 q 111 505 144 472 q 59 583 78 538 q 40 681 40 628 q 59 778 40 733 q 111 856 78 824 q 190 908 144 889 q 292 926 236 926 q 393 908 347 926 q 472 856 439 889 q 524 778 506 824 q 543 681 543 733 m 292 529 q 399 572 358 529 q 440 681 440 614 q 399 790 440 747 q 292 832 358 832 q 184 790 225 832 q 143 681 143 747 q 184 572 143 614 q 292 529 225 529 m 53 253 l 53 340 l 528 340 l 528 253 l 53 253 z "},"»":{"ha":785,"x_min":74,"x_max":713,"o":"m 74 67 l 297 343 l 74 619 l 214 619 l 436 343 l 214 67 l 74 67 m 350 67 l 574 343 l 350 619 l 490 619 l 713 343 l 490 67 l 350 67 z "},"¼":{"ha":1144,"x_min":110,"x_max":1121,"o":"m 233 0 l 810 908 l 911 908 l 335 0 l 233 0 m 226 336 l 226 819 l 110 819 l 110 908 l 325 908 l 325 336 l 226 336 m 965 0 l 965 121 l 701 121 l 701 206 l 965 572 l 1064 572 l 1064 210 l 1121 210 l 1121 121 l 1064 121 l 1064 0 l 965 0 m 964 435 l 808 213 l 808 210 l 967 210 l 967 435 l 964 435 z "},"½":{"ha":1144,"x_min":110,"x_max":1094,"o":"m 233 0 l 810 908 l 911 908 l 335 0 l 233 0 m 226 336 l 226 819 l 110 819 l 110 908 l 325 908 l 325 336 l 226 336 m 726 0 l 726 85 l 928 281 q 977 338 960 311 q 994 397 994 365 q 972 464 994 438 q 910 490 950 490 q 847 464 869 490 q 824 392 824 438 l 824 383 l 726 383 l 726 392 q 775 531 726 479 q 910 583 824 583 q 1045 531 996 583 q 1094 396 1094 478 q 1069 301 1094 340 q 999 219 1043 261 l 863 92 l 863 89 l 1088 89 l 1088 0 l 726 0 z "},"¾":{"ha":1144,"x_min":35,"x_max":1121,"o":"m 294 0 l 871 908 l 972 908 l 396 0 l 294 0 m 965 0 l 965 121 l 701 121 l 701 206 l 965 572 l 1064 572 l 1064 210 l 1121 210 l 1121 121 l 1064 121 l 1064 0 l 965 0 m 964 435 l 808 213 l 808 210 l 967 210 l 967 435 l 964 435 m 160 594 l 160 681 l 226 681 q 292 700 271 681 q 314 754 314 719 q 293 806 314 785 q 232 828 272 828 q 173 807 193 828 q 150 754 153 786 l 56 754 q 106 877 58 835 q 233 919 154 919 q 363 877 314 919 q 413 763 413 835 q 340 640 413 674 l 340 638 q 408 586 385 621 q 432 499 432 551 q 376 372 432 418 q 233 325 321 325 q 91 372 146 325 q 35 504 36 418 l 132 504 q 158 442 132 467 q 232 418 185 418 q 306 442 279 418 q 332 506 332 467 q 306 571 332 547 q 225 594 279 594 l 160 594 z "},"¿":{"ha":650,"x_min":40,"x_max":610,"o":"m 428 351 l 428 335 q 409 236 428 275 q 362 170 390 197 q 301 123 333 143 q 240 81 268 103 q 192 31 211 60 q 174 -42 174 3 q 217 -151 174 -112 q 329 -189 260 -189 q 441 -150 396 -189 q 486 -39 486 -111 l 486 -28 l 610 -28 l 610 -43 q 588 -154 610 -104 q 528 -239 567 -204 q 438 -292 490 -274 q 325 -311 386 -311 q 210 -292 263 -311 q 121 -240 158 -274 q 62 -156 83 -206 q 40 -43 40 -106 q 60 64 40 22 q 109 133 79 106 q 173 181 139 161 q 237 220 207 200 q 286 266 267 240 q 306 335 306 292 l 306 351 l 428 351 m 364 633 q 429 607 403 633 q 456 542 456 581 q 429 476 456 503 q 364 450 403 450 q 299 476 326 450 q 272 542 272 503 q 299 607 272 581 q 364 633 326 633 z "},"À":{"ha":933,"x_min":71,"x_max":861,"o":"m 719 0 l 719 288 l 208 288 l 208 0 l 71 0 l 71 535 q 97 697 71 625 q 172 821 122 769 q 295 899 222 872 q 464 926 368 926 q 634 899 560 926 q 759 821 708 872 q 835 697 810 769 q 861 535 861 625 l 861 0 l 719 0 m 719 535 q 656 727 719 658 q 464 796 592 796 q 272 727 336 796 q 208 535 208 658 l 208 418 l 719 418 l 719 535 m 444 994 l 274 1208 l 413 1208 l 558 994 l 444 994 z "},"Á":{"ha":933,"x_min":71,"x_max":861,"o":"m 719 0 l 719 288 l 208 288 l 208 0 l 71 0 l 71 535 q 97 697 71 625 q 172 821 122 769 q 295 899 222 872 q 464 926 368 926 q 634 899 560 926 q 759 821 708 872 q 835 697 810 769 q 861 535 861 625 l 861 0 l 719 0 m 719 535 q 656 727 719 658 q 464 796 592 796 q 272 727 336 796 q 208 535 208 658 l 208 418 l 719 418 l 719 535 m 375 994 l 521 1208 l 660 1208 l 489 994 l 375 994 z "},"Â":{"ha":933,"x_min":71,"x_max":861,"o":"m 719 0 l 719 288 l 208 288 l 208 0 l 71 0 l 71 535 q 97 697 71 625 q 172 821 122 769 q 295 899 222 872 q 464 926 368 926 q 634 899 560 926 q 759 821 708 872 q 835 697 810 769 q 861 535 861 625 l 861 0 l 719 0 m 719 535 q 656 727 719 658 q 464 796 592 796 q 272 727 336 796 q 208 535 208 658 l 208 418 l 719 418 l 719 535 m 575 994 l 468 1132 l 465 1132 l 358 994 l 244 994 l 400 1208 l 533 1208 l 689 994 l 575 994 z "},"Ã":{"ha":933,"x_min":71,"x_max":861,"o":"m 719 0 l 719 288 l 208 288 l 208 0 l 71 0 l 71 535 q 97 697 71 625 q 172 821 122 769 q 295 899 222 872 q 464 926 368 926 q 634 899 560 926 q 759 821 708 872 q 835 697 810 769 q 861 535 861 625 l 861 0 l 719 0 m 719 535 q 656 727 719 658 q 464 796 592 796 q 272 727 336 796 q 208 535 208 658 l 208 418 l 719 418 l 719 535 m 715 1188 q 563 999 693 999 q 500 1012 525 999 q 455 1040 475 1025 q 416 1069 435 1056 q 375 1082 397 1082 q 306 997 319 1082 l 215 997 q 368 1185 238 1185 q 431 1172 406 1185 q 476 1143 456 1158 q 514 1115 496 1128 q 556 1101 532 1101 q 601 1123 585 1101 q 625 1188 618 1144 l 715 1188 z "},"Ä":{"ha":933,"x_min":71,"x_max":861,"o":"m 719 0 l 719 288 l 208 288 l 208 0 l 71 0 l 71 535 q 97 697 71 625 q 172 821 122 769 q 295 899 222 872 q 464 926 368 926 q 634 899 560 926 q 759 821 708 872 q 835 697 810 769 q 861 535 861 625 l 861 0 l 719 0 m 719 535 q 656 727 719 658 q 464 796 592 796 q 272 727 336 796 q 208 535 208 658 l 208 418 l 719 418 l 719 535 m 600 1010 q 543 1033 567 1010 q 519 1092 519 1057 q 543 1149 519 1125 q 600 1172 567 1172 q 657 1149 633 1172 q 681 1092 681 1125 q 657 1033 681 1057 q 600 1010 633 1010 m 332 1010 q 274 1033 297 1010 q 250 1092 250 1057 q 274 1149 250 1125 q 332 1172 297 1172 q 389 1149 365 1172 q 413 1092 413 1125 q 389 1033 413 1057 q 332 1010 365 1010 z "},"Å":{"ha":933,"x_min":71,"x_max":861,"o":"m 719 0 l 719 288 l 208 288 l 208 0 l 71 0 l 71 535 q 97 697 71 625 q 172 821 122 769 q 295 899 222 872 q 464 926 368 926 q 634 899 560 926 q 759 821 708 872 q 835 697 810 769 q 861 535 861 625 l 861 0 l 719 0 m 719 535 q 656 727 719 658 q 464 796 592 796 q 272 727 336 796 q 208 535 208 658 l 208 418 l 719 418 l 719 535 m 522 1111 q 506 1152 522 1135 q 465 1169 489 1169 q 425 1152 442 1169 q 408 1111 408 1135 q 425 1070 408 1088 q 465 1053 442 1053 q 506 1070 489 1053 q 522 1111 522 1088 m 465 972 q 366 1012 406 972 q 326 1111 326 1051 q 366 1210 326 1171 q 465 1250 406 1250 q 565 1210 526 1250 q 604 1111 604 1171 q 565 1012 604 1051 q 465 972 526 972 z "},"Æ":{"ha":1400,"x_min":71,"x_max":1336,"o":"m 672 0 l 672 288 l 208 288 l 208 0 l 71 0 l 71 517 q 97 679 71 607 q 172 803 122 751 q 295 881 222 854 q 464 908 368 908 l 1336 908 l 1336 778 l 814 778 l 814 528 l 1256 528 l 1256 397 l 814 397 l 814 131 l 1336 131 l 1336 0 l 672 0 m 672 778 l 464 778 q 272 709 336 778 q 208 517 208 640 l 208 418 l 672 418 l 672 778 z "},"Ç":{"ha":1043,"x_min":47,"x_max":996,"o":"m 432 -121 l 475 -18 l 475 -15 q 301 32 379 -7 q 166 133 222 71 q 78 276 110 194 q 47 454 47 358 q 83 642 47 556 q 183 792 118 729 q 335 891 247 856 q 531 926 424 926 q 694 902 618 926 q 830 833 769 878 q 933 727 890 789 q 996 590 975 665 l 846 590 q 727 740 810 683 q 531 796 644 796 q 392 770 456 796 q 285 699 329 744 q 215 590 240 653 q 190 454 190 528 q 215 318 190 381 q 285 210 240 256 q 392 138 329 164 q 531 113 456 113 q 727 169 644 113 q 846 318 810 225 l 996 318 q 935 185 975 246 q 837 81 894 125 q 708 10 779 36 q 553 -18 636 -15 l 526 -82 l 526 -83 q 542 -80 536 -81 q 557 -79 549 -79 q 640 -110 608 -79 q 671 -190 671 -140 q 631 -280 671 -249 q 521 -311 592 -311 q 415 -282 454 -311 q 372 -200 375 -253 l 464 -200 q 482 -229 467 -219 q 521 -239 497 -239 q 562 -228 546 -239 q 578 -192 578 -217 q 565 -160 578 -172 q 531 -149 551 -149 q 492 -158 510 -149 l 432 -121 z "},"È":{"ha":825,"x_min":93,"x_max":761,"o":"m 235 397 l 235 131 l 761 131 l 761 0 l 93 0 l 93 908 l 761 908 l 761 778 l 235 778 l 235 528 l 681 528 l 681 397 l 235 397 m 407 994 l 236 1208 l 375 1208 l 521 994 l 407 994 z "},"É":{"ha":825,"x_min":93,"x_max":761,"o":"m 235 397 l 235 131 l 761 131 l 761 0 l 93 0 l 93 908 l 761 908 l 761 778 l 235 778 l 235 528 l 681 528 l 681 397 l 235 397 m 338 994 l 483 1208 l 622 1208 l 451 994 l 338 994 z "},"Ê":{"ha":825,"x_min":93,"x_max":761,"o":"m 235 397 l 235 131 l 761 131 l 761 0 l 93 0 l 93 908 l 761 908 l 761 778 l 235 778 l 235 528 l 681 528 l 681 397 l 235 397 m 538 994 l 431 1132 l 428 1132 l 321 994 l 207 994 l 363 1208 l 496 1208 l 651 994 l 538 994 z "},"Ë":{"ha":825,"x_min":93,"x_max":761,"o":"m 235 397 l 235 131 l 761 131 l 761 0 l 93 0 l 93 908 l 761 908 l 761 778 l 235 778 l 235 528 l 681 528 l 681 397 l 235 397 m 563 1010 q 506 1033 529 1010 q 482 1092 482 1057 q 506 1149 482 1125 q 563 1172 529 1172 q 619 1149 596 1172 q 643 1092 643 1125 q 619 1033 643 1057 q 563 1010 596 1010 m 294 1010 q 236 1033 260 1010 q 213 1092 213 1057 q 236 1149 213 1125 q 294 1172 260 1172 q 351 1149 328 1172 q 375 1092 375 1125 q 351 1033 375 1057 q 294 1010 328 1010 z "},"Ì":{"ha":333,"x_min":-26,"x_max":258,"o":"m 96 0 l 96 908 l 238 908 l 238 0 l 96 0 m 144 994 l -26 1208 l 113 1208 l 258 994 l 144 994 z "},"Í":{"ha":333,"x_min":75,"x_max":360,"o":"m 96 0 l 96 908 l 238 908 l 238 0 l 96 0 m 75 994 l 221 1208 l 360 1208 l 189 994 l 75 994 z "},"Î":{"ha":333,"x_min":-56,"x_max":389,"o":"m 96 0 l 96 908 l 238 908 l 238 0 l 96 0 m 275 994 l 168 1132 l 165 1132 l 58 994 l -56 994 l 100 1208 l 233 1208 l 389 994 l 275 994 z "},"Ï":{"ha":333,"x_min":-49,"x_max":382,"o":"m 96 0 l 96 908 l 238 908 l 238 0 l 96 0 m 301 1010 q 244 1033 268 1010 q 221 1092 221 1057 q 244 1149 221 1125 q 301 1172 268 1172 q 358 1149 335 1172 q 382 1092 382 1125 q 358 1033 382 1057 q 301 1010 335 1010 m 33 1010 q -25 1033 -1 1010 q -49 1092 -49 1057 q -25 1149 -49 1125 q 33 1172 -1 1172 q 90 1149 67 1172 q 114 1092 114 1125 q 90 1033 114 1057 q 33 1010 67 1010 z "},"Ð":{"ha":958,"x_min":19,"x_max":911,"o":"m 104 0 l 104 397 l 19 397 l 19 528 l 104 528 l 104 908 l 428 908 q 637 876 546 908 q 788 783 728 843 q 880 640 849 724 q 911 454 911 556 q 880 268 911 351 q 788 125 849 185 q 637 33 728 65 q 428 0 546 0 l 104 0 m 428 131 q 579 153 515 131 q 685 219 643 176 q 747 321 726 261 q 768 454 768 381 q 747 588 768 528 q 685 690 726 647 q 579 755 643 732 q 428 778 515 778 l 246 778 l 246 528 l 501 528 l 501 397 l 246 397 l 246 131 l 428 131 z "},"Ñ":{"ha":913,"x_min":72,"x_max":840,"o":"m 699 0 l 699 550 q 638 731 699 665 q 456 796 576 796 q 275 731 336 796 q 214 550 214 665 l 214 0 l 72 0 l 72 550 q 97 706 72 636 q 172 824 122 775 q 292 900 221 874 q 456 926 364 926 q 620 900 549 926 q 740 824 692 874 q 815 706 789 775 q 840 550 840 636 l 840 0 l 699 0 m 706 1188 q 553 999 683 999 q 490 1012 515 999 q 445 1040 465 1025 q 406 1069 425 1056 q 365 1082 388 1082 q 296 997 310 1082 l 206 997 q 358 1185 228 1185 q 421 1172 396 1185 q 466 1143 446 1158 q 504 1115 486 1128 q 546 1101 522 1101 q 592 1123 575 1101 q 615 1188 608 1144 l 706 1188 z "},"Ò":{"ha":1061,"x_min":47,"x_max":1014,"o":"m 1014 454 q 978 265 1014 351 q 878 116 943 179 q 725 17 814 53 q 531 -18 636 -18 q 335 17 424 -18 q 183 116 247 53 q 83 265 118 179 q 47 454 47 351 q 83 642 47 556 q 183 792 118 729 q 335 891 247 856 q 531 926 424 926 q 725 891 636 926 q 878 792 814 856 q 978 642 943 729 q 1014 454 1014 556 m 531 113 q 669 138 606 113 q 776 210 732 164 q 846 318 821 256 q 871 454 871 381 q 846 590 871 528 q 776 699 821 653 q 669 770 732 744 q 531 796 606 796 q 392 770 456 796 q 285 699 329 744 q 215 590 240 653 q 190 454 190 528 q 215 318 190 381 q 285 210 240 256 q 392 138 329 164 q 531 113 456 113 m 508 994 l 338 1208 l 476 1208 l 622 994 l 508 994 z "},"Ó":{"ha":1061,"x_min":47,"x_max":1014,"o":"m 1014 454 q 978 265 1014 351 q 878 116 943 179 q 725 17 814 53 q 531 -18 636 -18 q 335 17 424 -18 q 183 116 247 53 q 83 265 118 179 q 47 454 47 351 q 83 642 47 556 q 183 792 118 729 q 335 891 247 856 q 531 926 424 926 q 725 891 636 926 q 878 792 814 856 q 978 642 943 729 q 1014 454 1014 556 m 531 113 q 669 138 606 113 q 776 210 732 164 q 846 318 821 256 q 871 454 871 381 q 846 590 871 528 q 776 699 821 653 q 669 770 732 744 q 531 796 606 796 q 392 770 456 796 q 285 699 329 744 q 215 590 240 653 q 190 454 190 528 q 215 318 190 381 q 285 210 240 256 q 392 138 329 164 q 531 113 456 113 m 438 994 l 583 1208 l 722 1208 l 551 994 l 438 994 z "},"Ô":{"ha":1061,"x_min":47,"x_max":1014,"o":"m 1014 454 q 978 265 1014 351 q 878 116 943 179 q 725 17 814 53 q 531 -18 636 -18 q 335 17 424 -18 q 183 116 247 53 q 83 265 118 179 q 47 454 47 351 q 83 642 47 556 q 183 792 118 729 q 335 891 247 856 q 531 926 424 926 q 725 891 636 926 q 878 792 814 856 q 978 642 943 729 q 1014 454 1014 556 m 531 113 q 669 138 606 113 q 776 210 732 164 q 846 318 821 256 q 871 454 871 381 q 846 590 871 528 q 776 699 821 653 q 669 770 732 744 q 531 796 606 796 q 392 770 456 796 q 285 699 329 744 q 215 590 240 653 q 190 454 190 528 q 215 318 190 381 q 285 210 240 256 q 392 138 329 164 q 531 113 456 113 m 639 994 l 532 1132 l 529 1132 l 422 994 l 308 994 l 464 1208 l 597 1208 l 753 994 l 639 994 z "},"Õ":{"ha":1061,"x_min":47,"x_max":1014,"o":"m 1014 454 q 978 265 1014 351 q 878 116 943 179 q 725 17 814 53 q 531 -18 636 -18 q 335 17 424 -18 q 183 116 247 53 q 83 265 118 179 q 47 454 47 351 q 83 642 47 556 q 183 792 118 729 q 335 891 247 856 q 531 926 424 926 q 725 891 636 926 q 878 792 814 856 q 978 642 943 729 q 1014 454 1014 556 m 531 113 q 669 138 606 113 q 776 210 732 164 q 846 318 821 256 q 871 454 871 381 q 846 590 871 528 q 776 699 821 653 q 669 770 732 744 q 531 796 606 796 q 392 770 456 796 q 285 699 329 744 q 215 590 240 653 q 190 454 190 528 q 215 318 190 381 q 285 210 240 256 q 392 138 329 164 q 531 113 456 113 m 781 1188 q 628 999 758 999 q 565 1012 590 999 q 520 1040 540 1025 q 481 1069 500 1056 q 440 1082 463 1082 q 371 997 385 1082 l 281 997 q 433 1185 303 1185 q 496 1172 471 1185 q 541 1143 521 1158 q 579 1115 561 1128 q 621 1101 597 1101 q 667 1123 650 1101 q 690 1188 683 1144 l 781 1188 z "},"Ö":{"ha":1061,"x_min":47,"x_max":1014,"o":"m 1014 454 q 978 265 1014 351 q 878 116 943 179 q 725 17 814 53 q 531 -18 636 -18 q 335 17 424 -18 q 183 116 247 53 q 83 265 118 179 q 47 454 47 351 q 83 642 47 556 q 183 792 118 729 q 335 891 247 856 q 531 926 424 926 q 725 891 636 926 q 878 792 814 856 q 978 642 943 729 q 1014 454 1014 556 m 531 113 q 669 138 606 113 q 776 210 732 164 q 846 318 821 256 q 871 454 871 381 q 846 590 871 528 q 776 699 821 653 q 669 770 732 744 q 531 796 606 796 q 392 770 456 796 q 285 699 329 744 q 215 590 240 653 q 190 454 190 528 q 215 318 190 381 q 285 210 240 256 q 392 138 329 164 q 531 113 456 113 m 664 1010 q 607 1033 631 1010 q 583 1092 583 1057 q 607 1149 583 1125 q 664 1172 631 1172 q 721 1149 697 1172 q 744 1092 744 1125 q 721 1033 744 1057 q 664 1010 697 1010 m 396 1010 q 338 1033 361 1010 q 314 1092 314 1057 q 338 1149 314 1125 q 396 1172 361 1172 q 453 1149 429 1172 q 476 1092 476 1125 q 453 1033 476 1057 q 396 1010 429 1010 z "},"×":{"ha":781,"x_min":81,"x_max":700,"o":"m 390 283 l 161 54 l 81 135 l 310 364 l 81 593 l 161 674 l 390 444 l 619 674 l 700 593 l 471 364 l 700 135 l 619 54 l 390 283 z "},"Ø":{"ha":1061,"x_min":47,"x_max":1014,"o":"m 47 0 l 164 135 q 78 278 108 197 q 47 454 47 358 q 83 642 47 556 q 183 792 118 729 q 335 891 247 856 q 531 926 424 926 q 672 908 606 926 q 794 857 738 890 l 839 908 l 1014 908 l 896 774 q 983 631 951 711 q 1014 454 1014 550 q 978 265 1014 351 q 878 116 943 179 q 725 17 814 53 q 531 -18 636 -18 q 389 0 456 -18 q 267 51 322 18 l 222 0 l 47 0 m 190 454 q 207 339 190 392 q 256 243 224 286 l 258 243 l 703 751 l 703 754 q 622 785 665 774 q 531 796 579 796 q 392 770 456 796 q 285 699 329 744 q 215 590 240 653 q 190 454 190 528 m 531 113 q 669 138 606 113 q 776 210 732 164 q 846 318 821 256 q 871 454 871 381 q 804 665 871 578 l 801 665 l 358 157 l 358 154 q 531 113 431 113 z "},"Ù":{"ha":906,"x_min":72,"x_max":835,"o":"m 697 908 l 835 908 l 835 358 q 810 203 835 272 q 737 84 785 133 q 618 8 689 35 q 456 -18 547 -18 q 292 8 364 -18 q 172 83 221 35 q 97 202 122 132 q 72 358 72 272 l 72 908 l 214 908 l 214 358 q 274 178 214 243 q 456 113 335 113 q 637 178 576 113 q 697 358 697 243 l 697 908 m 431 994 l 260 1208 l 399 1208 l 544 994 l 431 994 z "},"Ú":{"ha":906,"x_min":72,"x_max":835,"o":"m 697 908 l 835 908 l 835 358 q 810 203 835 272 q 737 84 785 133 q 618 8 689 35 q 456 -18 547 -18 q 292 8 364 -18 q 172 83 221 35 q 97 202 122 132 q 72 358 72 272 l 72 908 l 214 908 l 214 358 q 274 178 214 243 q 456 113 335 113 q 637 178 576 113 q 697 358 697 243 l 697 908 m 361 994 l 507 1208 l 646 1208 l 475 994 l 361 994 z "},"Û":{"ha":906,"x_min":72,"x_max":835,"o":"m 697 908 l 835 908 l 835 358 q 810 203 835 272 q 737 84 785 133 q 618 8 689 35 q 456 -18 547 -18 q 292 8 364 -18 q 172 83 221 35 q 97 202 122 132 q 72 358 72 272 l 72 908 l 214 908 l 214 358 q 274 178 214 243 q 456 113 335 113 q 637 178 576 113 q 697 358 697 243 l 697 908 m 561 994 l 454 1132 l 451 1132 l 344 994 l 231 994 l 386 1208 l 519 1208 l 675 994 l 561 994 z "},"Ü":{"ha":906,"x_min":72,"x_max":835,"o":"m 697 908 l 835 908 l 835 358 q 810 203 835 272 q 737 84 785 133 q 618 8 689 35 q 456 -18 547 -18 q 292 8 364 -18 q 172 83 221 35 q 97 202 122 132 q 72 358 72 272 l 72 908 l 214 908 l 214 358 q 274 178 214 243 q 456 113 335 113 q 637 178 576 113 q 697 358 697 243 l 697 908 m 588 1010 q 531 1033 554 1010 q 507 1092 507 1057 q 531 1149 507 1125 q 588 1172 554 1172 q 644 1149 621 1172 q 668 1092 668 1125 q 644 1033 668 1057 q 588 1010 621 1010 m 319 1010 q 261 1033 285 1010 q 238 1092 238 1057 q 261 1149 238 1125 q 319 1172 285 1172 q 376 1149 353 1172 q 400 1092 400 1125 q 376 1033 400 1057 q 319 1010 353 1010 z "},"Ý":{"ha":903,"x_min":22,"x_max":881,"o":"m 382 0 l 382 389 l 22 908 l 192 908 l 451 514 l 454 514 l 715 908 l 881 908 l 524 393 l 524 0 l 382 0 m 360 994 l 506 1208 l 644 1208 l 474 994 l 360 994 z "},"Þ":{"ha":836,"x_min":93,"x_max":804,"o":"m 93 0 l 93 908 l 235 908 l 235 790 l 481 790 q 622 768 561 790 q 724 706 683 746 q 784 610 764 665 q 804 492 804 556 q 784 372 804 426 q 724 277 764 317 q 622 215 683 238 q 481 192 561 192 l 235 192 l 235 0 l 93 0 m 481 322 q 563 335 529 322 q 619 370 597 347 q 651 424 642 393 q 661 492 661 456 q 619 612 661 564 q 481 660 578 660 l 235 660 l 235 322 l 481 322 z "},"ß":{"ha":844,"x_min":90,"x_max":803,"o":"m 563 531 q 744 442 685 514 q 803 261 803 369 q 784 149 803 200 q 728 60 765 97 q 638 3 692 24 q 514 -18 583 -18 q 397 1 449 -18 q 307 53 344 19 q 249 135 269 88 q 225 240 228 182 l 340 240 q 388 140 346 179 q 506 100 431 100 q 626 144 583 100 q 669 269 669 189 q 615 401 669 356 q 443 447 561 447 l 365 447 l 365 565 l 386 565 q 506 604 460 565 q 551 722 551 643 q 505 842 551 803 q 386 882 458 882 q 267 840 313 882 q 222 707 222 799 l 222 0 l 90 0 l 90 707 q 112 836 90 781 q 172 929 133 892 q 265 985 211 967 q 386 1004 319 1004 q 506 985 451 1004 q 599 933 560 967 q 659 849 638 899 q 681 739 681 800 q 649 613 681 664 q 563 533 618 561 l 563 531 l 563 531 z "},"à":{"ha":844,"x_min":40,"x_max":776,"o":"m 776 0 l 656 0 l 656 143 l 653 143 q 552 26 621 69 q 388 -18 483 -18 q 258 6 321 -18 q 147 75 196 29 q 69 188 99 121 q 40 343 40 256 q 67 488 40 421 q 144 602 94 554 q 260 677 193 650 q 410 704 328 704 q 558 678 490 704 q 674 603 626 651 q 749 488 722 556 q 776 338 776 419 l 776 0 m 410 104 q 506 122 463 104 q 581 172 550 140 q 629 247 613 203 q 646 343 646 290 q 629 439 646 394 q 581 515 613 483 q 506 564 550 546 q 410 582 463 582 q 313 564 357 582 q 238 515 269 546 q 190 439 207 483 q 174 343 174 394 q 190 247 174 290 q 238 172 207 203 q 313 122 269 140 q 410 104 357 104 m 394 786 l 224 1000 l 363 1000 l 508 786 l 394 786 z "},"á":{"ha":844,"x_min":40,"x_max":776,"o":"m 776 0 l 656 0 l 656 143 l 653 143 q 552 26 621 69 q 388 -18 483 -18 q 258 6 321 -18 q 147 75 196 29 q 69 188 99 121 q 40 343 40 256 q 67 488 40 421 q 144 602 94 554 q 260 677 193 650 q 410 704 328 704 q 558 678 490 704 q 674 603 626 651 q 749 488 722 556 q 776 338 776 419 l 776 0 m 410 104 q 506 122 463 104 q 581 172 550 140 q 629 247 613 203 q 646 343 646 290 q 629 439 646 394 q 581 515 613 483 q 506 564 550 546 q 410 582 463 582 q 313 564 357 582 q 238 515 269 546 q 190 439 207 483 q 174 343 174 394 q 190 247 174 290 q 238 172 207 203 q 313 122 269 140 q 410 104 357 104 m 325 786 l 471 1000 l 610 1000 l 439 786 l 325 786 z "},"â":{"ha":844,"x_min":40,"x_max":776,"o":"m 776 0 l 656 0 l 656 143 l 653 143 q 552 26 621 69 q 388 -18 483 -18 q 258 6 321 -18 q 147 75 196 29 q 69 188 99 121 q 40 343 40 256 q 67 488 40 421 q 144 602 94 554 q 260 677 193 650 q 410 704 328 704 q 558 678 490 704 q 674 603 626 651 q 749 488 722 556 q 776 338 776 419 l 776 0 m 410 104 q 506 122 463 104 q 581 172 550 140 q 629 247 613 203 q 646 343 646 290 q 629 439 646 394 q 581 515 613 483 q 506 564 550 546 q 410 582 463 582 q 313 564 357 582 q 238 515 269 546 q 190 439 207 483 q 174 343 174 394 q 190 247 174 290 q 238 172 207 203 q 313 122 269 140 q 410 104 357 104 m 525 786 l 418 924 l 415 924 l 308 786 l 194 786 l 350 1000 l 483 1000 l 639 786 l 525 786 z "},"ã":{"ha":844,"x_min":40,"x_max":776,"o":"m 776 0 l 656 0 l 656 143 l 653 143 q 552 26 621 69 q 388 -18 483 -18 q 258 6 321 -18 q 147 75 196 29 q 69 188 99 121 q 40 343 40 256 q 67 488 40 421 q 144 602 94 554 q 260 677 193 650 q 410 704 328 704 q 558 678 490 704 q 674 603 626 651 q 749 488 722 556 q 776 338 776 419 l 776 0 m 410 104 q 506 122 463 104 q 581 172 550 140 q 629 247 613 203 q 646 343 646 290 q 629 439 646 394 q 581 515 613 483 q 506 564 550 546 q 410 582 463 582 q 313 564 357 582 q 238 515 269 546 q 190 439 207 483 q 174 343 174 394 q 190 247 174 290 q 238 172 207 203 q 313 122 269 140 q 410 104 357 104 m 667 979 q 514 790 644 790 q 451 803 476 790 q 406 832 426 817 q 367 860 386 847 q 326 874 349 874 q 257 789 271 874 l 167 789 q 319 976 189 976 q 382 963 357 976 q 427 935 407 950 q 465 906 447 919 q 507 893 483 893 q 553 915 536 893 q 576 979 569 936 l 667 979 z "},"ä":{"ha":844,"x_min":40,"x_max":776,"o":"m 776 0 l 656 0 l 656 143 l 653 143 q 552 26 621 69 q 388 -18 483 -18 q 258 6 321 -18 q 147 75 196 29 q 69 188 99 121 q 40 343 40 256 q 67 488 40 421 q 144 602 94 554 q 260 677 193 650 q 410 704 328 704 q 558 678 490 704 q 674 603 626 651 q 749 488 722 556 q 776 338 776 419 l 776 0 m 410 104 q 506 122 463 104 q 581 172 550 140 q 629 247 613 203 q 646 343 646 290 q 629 439 646 394 q 581 515 613 483 q 506 564 550 546 q 410 582 463 582 q 313 564 357 582 q 238 515 269 546 q 190 439 207 483 q 174 343 174 394 q 190 247 174 290 q 238 172 207 203 q 313 122 269 140 q 410 104 357 104 m 550 801 q 493 825 517 801 q 469 883 469 849 q 493 940 469 917 q 550 964 517 964 q 607 940 583 964 q 631 883 631 917 q 607 825 631 849 q 550 801 583 801 m 282 801 q 224 825 247 801 q 200 883 200 849 q 224 940 200 917 q 282 964 247 964 q 339 940 315 964 q 363 883 363 917 q 339 825 363 849 q 282 801 315 801 z "},"å":{"ha":844,"x_min":40,"x_max":776,"o":"m 776 0 l 656 0 l 656 143 l 653 143 q 552 26 621 69 q 388 -18 483 -18 q 258 6 321 -18 q 147 75 196 29 q 69 188 99 121 q 40 343 40 256 q 67 488 40 421 q 144 602 94 554 q 260 677 193 650 q 410 704 328 704 q 558 678 490 704 q 674 603 626 651 q 749 488 722 556 q 776 338 776 419 l 776 0 m 410 104 q 506 122 463 104 q 581 172 550 140 q 629 247 613 203 q 646 343 646 290 q 629 439 646 394 q 581 515 613 483 q 506 564 550 546 q 410 582 463 582 q 313 564 357 582 q 238 515 269 546 q 190 439 207 483 q 174 343 174 394 q 190 247 174 290 q 238 172 207 203 q 313 122 269 140 q 410 104 357 104 m 474 903 q 457 944 474 926 q 417 961 440 961 q 376 944 393 961 q 360 903 360 926 q 376 862 360 879 q 417 844 393 844 q 457 862 440 844 q 474 903 474 879 m 417 764 q 317 803 357 764 q 278 903 278 843 q 317 1002 278 963 q 417 1042 357 1042 q 517 1002 478 1042 q 556 903 556 963 q 517 803 556 843 q 417 764 478 764 z "},"æ":{"ha":1421,"x_min":40,"x_max":1381,"o":"m 410 104 q 506 122 463 104 q 581 172 550 140 q 629 247 613 203 q 646 343 646 290 q 629 439 646 394 q 581 515 613 483 q 506 564 550 546 q 410 582 463 582 q 313 564 357 582 q 238 515 269 546 q 190 439 207 483 q 174 343 174 394 q 190 247 174 290 q 238 172 207 203 q 313 122 269 140 q 410 104 357 104 m 1014 582 q 867 537 926 582 q 788 415 807 492 l 788 413 l 1242 413 l 1242 415 q 1162 537 1222 492 q 1014 582 1101 582 m 1351 192 q 1228 39 1313 96 q 1035 -18 1143 -18 q 875 23 943 -18 q 774 133 807 64 l 772 133 l 772 0 l 651 0 l 651 133 l 649 133 q 547 23 615 64 q 388 -18 479 -18 q 258 6 321 -18 q 147 75 196 29 q 69 188 99 121 q 40 343 40 256 q 67 488 40 421 q 141 602 93 554 q 256 677 189 650 q 401 704 322 704 q 592 657 514 704 q 711 529 671 610 l 714 529 q 832 657 754 610 q 1022 704 910 704 q 1167 677 1101 704 q 1281 602 1233 650 q 1354 488 1328 554 q 1381 343 1381 421 l 1381 294 l 783 294 l 783 292 q 859 155 799 206 q 1014 104 919 104 q 1206 192 1147 104 l 1351 192 z "},"ç":{"ha":806,"x_min":40,"x_max":764,"o":"m 308 -121 l 350 -17 l 350 -14 q 224 25 281 -6 q 126 102 167 56 q 63 210 85 149 q 40 343 40 272 q 67 488 40 421 q 144 602 94 554 q 260 677 193 650 q 410 704 328 704 q 537 685 478 704 q 642 630 596 665 q 719 546 688 594 q 764 438 750 497 l 631 438 q 548 543 606 504 q 410 582 490 582 q 313 564 357 582 q 238 515 269 546 q 190 439 207 483 q 174 343 174 394 q 190 247 174 290 q 238 172 207 203 q 313 122 269 140 q 410 104 357 104 q 548 143 490 104 q 631 249 606 182 l 764 249 q 722 144 751 192 q 648 61 692 96 q 549 6 604 26 q 429 -18 493 -15 l 403 -82 l 403 -83 q 419 -80 413 -81 q 433 -79 425 -79 q 516 -110 485 -79 q 547 -190 547 -140 q 508 -280 547 -249 q 397 -311 468 -311 q 291 -282 331 -311 q 249 -200 251 -253 l 340 -200 q 358 -229 343 -219 q 397 -239 374 -239 q 438 -228 422 -239 q 454 -192 454 -217 q 441 -160 454 -172 q 407 -149 428 -149 q 368 -158 386 -149 l 308 -121 z "},"è":{"ha":817,"x_min":40,"x_max":776,"o":"m 179 294 l 179 292 q 255 155 194 206 q 410 104 315 104 q 601 192 543 104 l 747 192 q 619 39 707 96 q 410 -18 531 -18 q 260 9 328 -18 q 144 84 193 36 q 67 199 94 132 q 40 343 40 265 q 67 488 40 421 q 144 602 94 554 q 260 677 193 650 q 410 704 328 704 q 558 677 490 704 q 674 602 626 650 q 749 488 722 554 q 776 343 776 421 l 776 294 l 179 294 m 410 582 q 263 537 322 582 q 183 415 203 492 l 183 413 l 638 413 l 638 415 q 558 537 618 492 q 410 582 497 582 m 388 786 l 217 1000 l 356 1000 l 501 786 l 388 786 z "},"é":{"ha":817,"x_min":40,"x_max":776,"o":"m 179 294 l 179 292 q 255 155 194 206 q 410 104 315 104 q 601 192 543 104 l 747 192 q 619 39 707 96 q 410 -18 531 -18 q 260 9 328 -18 q 144 84 193 36 q 67 199 94 132 q 40 343 40 265 q 67 488 40 421 q 144 602 94 554 q 260 677 193 650 q 410 704 328 704 q 558 677 490 704 q 674 602 626 650 q 749 488 722 554 q 776 343 776 421 l 776 294 l 179 294 m 410 582 q 263 537 322 582 q 183 415 203 492 l 183 413 l 638 413 l 638 415 q 558 537 618 492 q 410 582 497 582 m 318 786 l 464 1000 l 603 1000 l 432 786 l 318 786 z "},"ê":{"ha":817,"x_min":40,"x_max":776,"o":"m 179 294 l 179 292 q 255 155 194 206 q 410 104 315 104 q 601 192 543 104 l 747 192 q 619 39 707 96 q 410 -18 531 -18 q 260 9 328 -18 q 144 84 193 36 q 67 199 94 132 q 40 343 40 265 q 67 488 40 421 q 144 602 94 554 q 260 677 193 650 q 410 704 328 704 q 558 677 490 704 q 674 602 626 650 q 749 488 722 554 q 776 343 776 421 l 776 294 l 179 294 m 410 582 q 263 537 322 582 q 183 415 203 492 l 183 413 l 638 413 l 638 415 q 558 537 618 492 q 410 582 497 582 m 518 786 l 411 924 l 408 924 l 301 786 l 188 786 l 343 1000 l 476 1000 l 632 786 l 518 786 z "},"ë":{"ha":817,"x_min":40,"x_max":776,"o":"m 179 294 l 179 292 q 255 155 194 206 q 410 104 315 104 q 601 192 543 104 l 747 192 q 619 39 707 96 q 410 -18 531 -18 q 260 9 328 -18 q 144 84 193 36 q 67 199 94 132 q 40 343 40 265 q 67 488 40 421 q 144 602 94 554 q 260 677 193 650 q 410 704 328 704 q 558 677 490 704 q 674 602 626 650 q 749 488 722 554 q 776 343 776 421 l 776 294 l 179 294 m 410 582 q 263 537 322 582 q 183 415 203 492 l 183 413 l 638 413 l 638 415 q 558 537 618 492 q 410 582 497 582 m 544 801 q 488 825 511 801 q 464 883 464 849 q 488 940 464 917 q 544 964 511 964 q 601 940 578 964 q 625 883 625 917 q 601 825 625 849 q 544 801 578 801 m 276 801 q 218 825 242 801 q 194 883 194 849 q 218 940 194 917 q 276 964 242 964 q 333 940 310 964 q 357 883 357 917 q 333 825 357 849 q 276 801 310 801 z "},"ì":{"ha":317,"x_min":-33,"x_max":251,"o":"m 138 786 l -33 1000 l 106 1000 l 251 786 l 138 786 m 93 0 l 93 686 l 225 686 l 225 0 l 93 0 z "},"í":{"ha":317,"x_min":67,"x_max":351,"o":"m 67 786 l 213 1000 l 351 1000 l 181 786 l 67 786 m 93 0 l 93 686 l 225 686 l 225 0 l 93 0 z "},"î":{"ha":317,"x_min":-62,"x_max":382,"o":"m 93 0 l 93 686 l 225 686 l 225 0 l 93 0 m 268 786 l 161 924 l 158 924 l 51 786 l -62 786 l 93 1000 l 226 1000 l 382 786 l 268 786 z "},"ï":{"ha":317,"x_min":-44,"x_max":363,"o":"m 282 801 q 224 825 249 801 q 200 883 200 849 q 224 940 200 917 q 282 964 249 964 q 339 940 315 964 q 363 883 363 917 q 339 825 363 849 q 282 801 315 801 m 36 801 q -21 825 3 801 q -44 883 -44 849 q -21 940 -44 917 q 36 964 3 964 q 93 940 69 964 q 117 883 117 917 q 93 825 117 849 q 36 801 69 801 m 93 0 l 93 686 l 224 686 l 224 0 l 93 0 z "},"ð":{"ha":819,"x_min":40,"x_max":779,"o":"m 779 371 q 752 208 779 281 q 676 86 725 136 q 558 9 626 36 q 410 -18 490 -18 q 260 9 328 -18 q 144 84 193 36 q 67 199 94 132 q 40 343 40 265 q 65 484 40 421 q 133 592 90 547 q 235 663 176 638 q 363 688 294 688 q 489 664 429 688 q 593 597 549 640 l 596 597 q 444 781 539 701 l 126 693 l 126 794 l 339 853 l 339 856 q 245 901 294 882 q 143 935 196 919 l 296 986 q 397 947 349 969 q 488 894 444 924 l 681 947 l 681 846 l 585 818 l 585 815 q 728 613 676 726 q 779 371 779 499 m 410 104 q 506 122 463 104 q 581 172 550 140 q 629 247 613 203 q 646 343 646 290 q 629 439 646 394 q 581 515 613 483 q 506 564 550 546 q 410 582 463 582 q 313 564 357 582 q 238 515 269 546 q 190 439 207 483 q 174 343 174 394 q 190 247 174 290 q 238 172 207 203 q 313 122 269 140 q 410 104 357 104 z "},"ñ":{"ha":814,"x_min":68,"x_max":746,"o":"m 614 0 l 614 357 q 558 526 614 469 q 407 582 501 582 q 256 526 313 582 q 200 357 200 469 l 200 0 l 68 0 l 68 357 q 92 508 68 443 q 161 616 117 572 q 268 682 206 660 q 407 704 331 704 q 546 683 483 704 q 653 617 608 661 q 722 508 697 574 q 746 357 746 443 l 746 0 l 614 0 m 657 979 q 504 790 635 790 q 442 803 467 790 q 397 832 417 817 q 358 860 376 847 q 317 874 339 874 q 247 789 261 874 l 157 789 q 310 976 179 976 q 372 963 347 976 q 417 935 397 950 q 456 906 438 919 q 497 893 474 893 q 543 915 526 893 q 567 979 560 936 l 657 979 z "},"ò":{"ha":819,"x_min":40,"x_max":779,"o":"m 779 343 q 752 199 779 265 q 676 84 725 132 q 558 9 626 36 q 410 -18 490 -18 q 260 9 328 -18 q 144 84 193 36 q 67 199 94 132 q 40 343 40 265 q 67 488 40 421 q 144 602 94 554 q 260 677 193 650 q 410 704 328 704 q 558 677 490 704 q 676 602 626 650 q 752 488 725 554 q 779 343 779 421 m 410 104 q 506 122 463 104 q 581 172 550 140 q 629 247 613 203 q 646 343 646 290 q 629 439 646 394 q 581 515 613 483 q 506 564 550 546 q 410 582 463 582 q 313 564 357 582 q 238 515 269 546 q 190 439 207 483 q 174 343 174 394 q 190 247 174 290 q 238 172 207 203 q 313 122 269 140 q 410 104 357 104 m 388 786 l 217 1000 l 356 1000 l 501 786 l 388 786 z "},"ó":{"ha":819,"x_min":40,"x_max":779,"o":"m 779 343 q 752 199 779 265 q 676 84 725 132 q 558 9 626 36 q 410 -18 490 -18 q 260 9 328 -18 q 144 84 193 36 q 67 199 94 132 q 40 343 40 265 q 67 488 40 421 q 144 602 94 554 q 260 677 193 650 q 410 704 328 704 q 558 677 490 704 q 676 602 626 650 q 752 488 725 554 q 779 343 779 421 m 410 104 q 506 122 463 104 q 581 172 550 140 q 629 247 613 203 q 646 343 646 290 q 629 439 646 394 q 581 515 613 483 q 506 564 550 546 q 410 582 463 582 q 313 564 357 582 q 238 515 269 546 q 190 439 207 483 q 174 343 174 394 q 190 247 174 290 q 238 172 207 203 q 313 122 269 140 q 410 104 357 104 m 317 786 l 463 1000 l 601 1000 l 431 786 l 317 786 z "},"ô":{"ha":819,"x_min":40,"x_max":779,"o":"m 779 343 q 752 199 779 265 q 676 84 725 132 q 558 9 626 36 q 410 -18 490 -18 q 260 9 328 -18 q 144 84 193 36 q 67 199 94 132 q 40 343 40 265 q 67 488 40 421 q 144 602 94 554 q 260 677 193 650 q 410 704 328 704 q 558 677 490 704 q 676 602 626 650 q 752 488 725 554 q 779 343 779 421 m 410 104 q 506 122 463 104 q 581 172 550 140 q 629 247 613 203 q 646 343 646 290 q 629 439 646 394 q 581 515 613 483 q 506 564 550 546 q 410 582 463 582 q 313 564 357 582 q 238 515 269 546 q 190 439 207 483 q 174 343 174 394 q 190 247 174 290 q 238 172 207 203 q 313 122 269 140 q 410 104 357 104 m 518 786 l 411 924 l 408 924 l 301 786 l 188 786 l 343 1000 l 476 1000 l 632 786 l 518 786 z "},"õ":{"ha":819,"x_min":40,"x_max":779,"o":"m 779 343 q 752 199 779 265 q 676 84 725 132 q 558 9 626 36 q 410 -18 490 -18 q 260 9 328 -18 q 144 84 193 36 q 67 199 94 132 q 40 343 40 265 q 67 488 40 421 q 144 602 94 554 q 260 677 193 650 q 410 704 328 704 q 558 677 490 704 q 676 602 626 650 q 752 488 725 554 q 779 343 779 421 m 410 104 q 506 122 463 104 q 581 172 550 140 q 629 247 613 203 q 646 343 646 290 q 629 439 646 394 q 581 515 613 483 q 506 564 550 546 q 410 582 463 582 q 313 564 357 582 q 238 515 269 546 q 190 439 207 483 q 174 343 174 394 q 190 247 174 290 q 238 172 207 203 q 313 122 269 140 q 410 104 357 104 m 660 979 q 507 790 638 790 q 444 803 469 790 q 399 832 419 817 q 360 860 379 847 q 319 874 342 874 q 250 789 264 874 l 160 789 q 313 976 182 976 q 375 963 350 976 q 420 935 400 950 q 458 906 440 919 q 500 893 476 893 q 546 915 529 893 q 569 979 563 936 l 660 979 z "},"ö":{"ha":819,"x_min":40,"x_max":779,"o":"m 779 343 q 752 199 779 265 q 676 84 725 132 q 558 9 626 36 q 410 -18 490 -18 q 260 9 328 -18 q 144 84 193 36 q 67 199 94 132 q 40 343 40 265 q 67 488 40 421 q 144 602 94 554 q 260 677 193 650 q 410 704 328 704 q 558 677 490 704 q 676 602 626 650 q 752 488 725 554 q 779 343 779 421 m 410 104 q 506 122 463 104 q 581 172 550 140 q 629 247 613 203 q 646 343 646 290 q 629 439 646 394 q 581 515 613 483 q 506 564 550 546 q 410 582 463 582 q 313 564 357 582 q 238 515 269 546 q 190 439 207 483 q 174 343 174 394 q 190 247 174 290 q 238 172 207 203 q 313 122 269 140 q 410 104 357 104 m 543 801 q 486 825 510 801 q 463 883 463 849 q 486 940 463 917 q 543 964 510 964 q 600 940 576 964 q 624 883 624 917 q 600 825 624 849 q 543 801 576 801 m 275 801 q 217 825 240 801 q 193 883 193 849 q 217 940 193 917 q 275 964 240 964 q 332 940 308 964 q 356 883 356 917 q 332 825 356 849 q 275 801 308 801 z "},"÷":{"ha":781,"x_min":68,"x_max":713,"o":"m 390 11 q 330 35 354 11 q 306 94 306 58 q 330 155 306 131 q 390 179 354 179 q 451 155 426 179 q 475 94 475 131 q 451 35 475 58 q 390 11 426 11 m 390 549 q 330 573 354 549 q 306 633 306 597 q 330 693 306 669 q 390 717 354 717 q 451 693 426 717 q 475 633 475 669 q 451 573 475 597 q 390 549 426 549 m 68 307 l 68 421 l 713 421 l 713 307 l 68 307 z "},"ø":{"ha":819,"x_min":40,"x_max":779,"o":"m 40 0 l 126 101 q 63 210 86 149 q 40 343 40 271 q 67 488 40 421 q 144 602 94 554 q 260 677 193 650 q 410 704 328 704 q 512 692 464 704 q 601 657 560 679 l 626 686 l 779 686 l 692 583 q 756 475 733 536 q 779 343 779 414 q 752 199 779 265 q 676 84 725 132 q 558 9 626 36 q 410 -18 490 -18 q 307 -6 356 -18 q 218 29 258 7 l 193 0 l 40 0 m 410 104 q 506 122 463 104 q 581 172 550 140 q 629 247 613 203 q 646 343 646 290 q 636 417 646 382 q 607 482 626 453 l 604 482 l 303 128 l 303 125 q 353 110 326 115 q 410 104 379 104 m 174 343 q 211 204 174 260 l 214 204 l 515 557 l 515 560 q 410 582 471 582 q 313 564 357 582 q 238 515 269 546 q 190 439 207 483 q 174 343 174 394 z "},"ù":{"ha":814,"x_min":68,"x_max":746,"o":"m 614 686 l 746 686 l 746 328 q 722 177 746 242 q 653 69 697 113 q 546 4 608 26 q 407 -18 483 -18 q 268 3 331 -18 q 161 69 206 25 q 92 177 117 113 q 68 328 68 242 l 68 686 l 200 686 l 200 328 q 256 160 200 215 q 407 104 313 104 q 558 160 501 104 q 614 328 614 215 l 614 686 m 385 786 l 214 1000 l 353 1000 l 499 786 l 385 786 z "},"ú":{"ha":814,"x_min":68,"x_max":746,"o":"m 614 686 l 746 686 l 746 328 q 722 177 746 242 q 653 69 697 113 q 546 4 608 26 q 407 -18 483 -18 q 268 3 331 -18 q 161 69 206 25 q 92 177 117 113 q 68 328 68 242 l 68 686 l 200 686 l 200 328 q 256 160 200 215 q 407 104 313 104 q 558 160 501 104 q 614 328 614 215 l 614 686 m 314 786 l 460 1000 l 599 1000 l 428 786 l 314 786 z "},"û":{"ha":814,"x_min":68,"x_max":746,"o":"m 614 686 l 746 686 l 746 328 q 722 177 746 242 q 653 69 697 113 q 546 4 608 26 q 407 -18 483 -18 q 268 3 331 -18 q 161 69 206 25 q 92 177 117 113 q 68 328 68 242 l 68 686 l 200 686 l 200 328 q 256 160 200 215 q 407 104 313 104 q 558 160 501 104 q 614 328 614 215 l 614 686 m 515 786 l 408 924 l 406 924 l 299 786 l 185 786 l 340 1000 l 474 1000 l 629 786 l 515 786 z "},"ü":{"ha":814,"x_min":68,"x_max":746,"o":"m 614 686 l 746 686 l 746 328 q 722 177 746 242 q 653 69 697 113 q 546 4 608 26 q 407 -18 483 -18 q 268 3 331 -18 q 161 69 206 25 q 92 177 117 113 q 68 328 68 242 l 68 686 l 200 686 l 200 328 q 256 160 200 215 q 407 104 313 104 q 558 160 501 104 q 614 328 614 215 l 614 686 m 540 801 q 483 825 507 801 q 460 883 460 849 q 483 940 460 917 q 540 964 507 964 q 597 940 574 964 q 621 883 621 917 q 597 825 621 849 q 540 801 574 801 m 272 801 q 214 825 238 801 q 190 883 190 849 q 214 940 190 917 q 272 964 238 964 q 329 940 306 964 q 353 883 353 917 q 329 825 353 849 q 272 801 306 801 z "},"ý":{"ha":836,"x_min":68,"x_max":746,"o":"m 407 111 q 556 168 499 111 q 614 335 614 225 l 614 686 l 746 686 l 746 24 q 719 -130 746 -67 q 647 -233 693 -193 q 538 -292 600 -274 q 404 -311 475 -311 q 291 -297 344 -311 q 194 -255 238 -283 q 120 -183 151 -226 q 74 -82 89 -140 l 206 -82 q 404 -196 253 -196 q 557 -146 500 -196 q 614 21 614 -96 l 614 114 l 611 114 q 521 21 579 54 q 385 -12 463 -12 q 263 8 321 -12 q 163 71 206 28 q 94 179 119 114 q 68 335 68 244 l 68 686 l 200 686 l 200 335 q 256 167 200 222 q 407 111 313 111 m 325 786 l 471 1000 l 610 1000 l 439 786 l 325 786 z "},"þ":{"ha":867,"x_min":90,"x_max":826,"o":"m 90 -293 l 90 986 l 222 986 l 222 569 l 225 569 q 327 668 261 632 q 481 704 393 704 q 609 681 547 704 q 719 611 671 657 q 797 498 768 565 q 826 343 826 431 q 797 188 826 256 q 719 75 768 121 q 609 6 671 29 q 481 -18 547 -18 q 327 18 393 -18 q 225 117 261 54 l 222 117 l 222 -293 l 90 -293 m 457 104 q 553 122 510 104 q 628 172 597 140 q 676 247 660 203 q 693 343 693 290 q 676 439 693 394 q 628 515 660 483 q 553 564 597 546 q 457 582 510 582 q 360 564 404 582 q 286 515 317 546 q 239 439 256 483 q 222 343 222 394 q 239 247 222 290 q 286 172 256 203 q 360 122 317 140 q 457 104 404 104 z "},"ÿ":{"ha":836,"x_min":68,"x_max":746,"o":"m 407 111 q 556 168 499 111 q 614 335 614 225 l 614 686 l 746 686 l 746 24 q 719 -130 746 -67 q 647 -233 693 -193 q 538 -292 600 -274 q 404 -311 475 -311 q 291 -297 344 -311 q 194 -255 238 -283 q 120 -183 151 -226 q 74 -82 89 -140 l 206 -82 q 404 -196 253 -196 q 557 -146 500 -196 q 614 21 614 -96 l 614 114 l 611 114 q 521 21 579 54 q 385 -12 463 -12 q 263 8 321 -12 q 163 71 206 28 q 94 179 119 114 q 68 335 68 244 l 68 686 l 200 686 l 200 335 q 256 167 200 222 q 407 111 313 111 m 551 801 q 494 825 518 801 q 471 883 471 849 q 494 940 471 917 q 551 964 518 964 q 608 940 585 964 q 632 883 632 917 q 608 825 632 849 q 551 801 585 801 m 283 801 q 225 825 249 801 q 201 883 201 849 q 225 940 201 917 q 283 964 249 964 q 340 940 317 964 q 364 883 364 917 q 340 825 364 849 q 283 801 317 801 z "},"ı":{"ha":317,"x_min":93,"x_max":225,"o":"m 93 0 l 93 686 l 225 686 l 225 0 l 93 0 z "},"Œ":{"ha":1599,"x_min":47,"x_max":1535,"o":"m 871 0 l 871 181 l 868 181 q 816 103 849 139 q 739 40 783 67 q 638 -3 694 13 q 515 -18 582 -18 q 341 13 425 -18 q 192 103 257 43 q 87 251 126 164 q 47 454 47 339 q 87 656 47 568 q 192 805 126 744 q 341 896 257 865 q 515 926 425 926 q 638 910 582 926 q 738 867 693 894 q 815 805 782 840 q 868 729 847 769 l 871 729 l 871 908 l 1535 908 l 1535 778 l 1013 778 l 1013 528 l 1454 528 l 1454 397 l 1013 397 l 1013 131 l 1535 131 l 1535 0 l 871 0 m 531 113 q 669 138 606 113 q 776 210 732 164 q 846 318 821 256 q 871 454 871 381 q 846 590 871 528 q 776 699 821 653 q 669 770 732 744 q 531 796 606 796 q 392 770 456 796 q 285 699 329 744 q 215 590 240 653 q 190 454 190 528 q 215 318 190 381 q 285 210 240 256 q 392 138 329 164 q 531 113 456 113 z "},"œ":{"ha":1421,"x_min":40,"x_max":1381,"o":"m 401 704 q 592 657 514 704 q 711 529 671 610 l 714 529 q 832 657 754 610 q 1022 704 910 704 q 1167 677 1101 704 q 1281 602 1233 650 q 1354 488 1328 554 q 1381 343 1381 421 l 1381 294 l 783 294 l 783 292 q 859 155 799 206 q 1014 104 919 104 q 1206 192 1147 104 l 1351 192 q 1226 39 1313 96 q 1022 -18 1140 -18 q 833 29 911 -18 q 714 157 754 76 l 711 157 q 592 30 671 78 q 401 -18 514 -18 q 256 9 322 -18 q 141 84 189 36 q 67 199 93 132 q 40 343 40 265 q 67 488 40 421 q 141 602 93 554 q 256 677 189 650 q 401 704 322 704 m 410 104 q 506 122 463 104 q 581 172 550 140 q 629 247 613 203 q 646 343 646 290 q 629 439 646 394 q 581 515 613 483 q 506 564 550 546 q 410 582 463 582 q 313 564 357 582 q 238 515 269 546 q 190 439 207 483 q 174 343 174 394 q 190 247 174 290 q 238 172 207 203 q 313 122 269 140 q 410 104 357 104 m 1014 582 q 867 537 926 582 q 788 415 807 492 l 788 413 l 1242 413 l 1242 415 q 1162 537 1222 492 q 1014 582 1101 582 z "},"Š":{"ha":765,"x_min":46,"x_max":717,"o":"m 564 654 q 515 755 561 715 q 385 794 469 794 q 250 753 297 794 q 203 650 203 713 q 241 571 203 596 q 336 533 279 546 q 460 510 393 521 q 583 476 526 500 q 678 402 640 451 q 717 263 717 353 q 692 145 717 197 q 624 56 668 93 q 519 0 581 19 q 381 -19 457 -19 q 244 0 306 -19 q 140 55 183 19 q 72 142 96 90 q 46 258 47 193 l 186 258 q 238 151 189 192 q 381 111 288 111 q 527 151 476 111 q 578 258 578 192 q 556 322 578 299 q 498 360 533 346 q 416 381 463 374 q 322 398 369 389 q 228 422 274 407 q 147 463 182 436 q 89 534 111 490 q 67 646 67 578 q 89 760 67 708 q 153 848 111 811 q 253 905 194 885 q 382 925 311 925 q 509 906 451 925 q 608 851 567 886 q 673 765 650 815 q 699 654 696 715 l 564 654 m 319 994 l 164 1208 l 278 1208 l 385 1071 l 388 1071 l 494 1208 l 608 1208 l 453 994 l 319 994 z "},"š":{"ha":656,"x_min":43,"x_max":613,"o":"m 464 493 q 426 559 461 533 q 329 585 392 585 q 226 557 263 585 q 190 485 190 529 q 222 434 190 449 q 300 412 253 419 q 401 398 347 404 q 503 372 456 392 q 581 314 550 353 q 613 203 613 275 q 592 114 613 154 q 535 44 572 74 q 444 -1 497 15 q 328 -18 392 -18 q 211 -2 263 -18 q 123 43 160 14 q 65 112 86 72 q 43 199 44 151 l 176 199 q 217 128 179 156 q 326 101 256 101 q 441 130 403 101 q 479 203 479 158 q 448 254 479 239 q 369 276 417 269 q 268 290 322 283 q 167 317 214 297 q 88 374 119 336 q 57 485 57 413 q 76 572 57 532 q 130 642 94 613 q 215 688 165 671 q 326 704 265 704 q 437 688 388 704 q 521 642 486 671 q 574 576 556 614 q 594 493 593 538 l 464 493 m 263 786 l 107 1000 l 221 1000 l 328 863 l 331 863 l 438 1000 l 551 1000 l 396 786 l 263 786 z "},"Ÿ":{"ha":903,"x_min":22,"x_max":881,"o":"m 382 0 l 382 389 l 22 908 l 192 908 l 451 514 l 454 514 l 715 908 l 881 908 l 524 393 l 524 0 l 382 0 m 585 1010 q 528 1033 551 1010 q 504 1092 504 1057 q 528 1149 504 1125 q 585 1172 551 1172 q 642 1149 618 1172 q 665 1092 665 1125 q 642 1033 665 1057 q 585 1010 618 1010 m 317 1010 q 258 1033 282 1010 q 235 1092 235 1057 q 258 1149 235 1125 q 317 1172 282 1172 q 374 1149 350 1172 q 397 1092 397 1125 q 374 1033 397 1057 q 317 1010 350 1010 z "},"Ž":{"ha":838,"x_min":60,"x_max":771,"o":"m 235 133 l 235 131 l 771 131 l 771 0 l 60 0 l 60 125 l 582 775 l 582 778 l 81 778 l 81 908 l 757 908 l 757 783 l 235 133 m 351 994 l 196 1208 l 310 1208 l 417 1071 l 419 1071 l 526 1208 l 640 1208 l 485 994 l 351 994 z "},"ž":{"ha":742,"x_min":51,"x_max":683,"o":"m 51 0 l 51 108 l 490 565 l 490 568 l 72 568 l 72 686 l 669 686 l 669 578 l 231 121 l 231 118 l 683 118 l 683 0 l 51 0 m 304 786 l 149 1000 l 263 1000 l 369 863 l 372 863 l 479 1000 l 593 1000 l 438 786 l 304 786 z "},"ƒ":{"ha":725,"x_min":78,"x_max":647,"o":"m 78 -151 l 78 -36 l 129 -36 q 222 -3 193 -36 q 257 99 250 31 l 288 460 l 125 460 l 125 578 l 297 578 l 308 690 q 331 801 314 753 q 379 882 349 849 q 455 932 410 915 q 564 949 500 949 l 647 949 l 647 835 l 568 835 q 476 801 504 835 q 440 699 447 767 l 429 578 l 621 578 l 621 460 l 419 460 l 389 107 q 319 -85 378 -18 q 133 -151 261 -151 l 78 -151 z "},"ȷ":{"ha":317,"x_min":-39,"x_max":225,"o":"m -39 -303 l -39 -189 l -24 -189 q 67 -158 40 -189 q 93 -54 93 -128 l 93 686 l 225 686 l 225 -46 q 171 -238 225 -174 q -11 -303 117 -303 l -39 -303 z "},"ˆ":{"ha":444,"x_min":0,"x_max":444,"o":"m 331 786 l 224 924 l 221 924 l 114 786 l 0 786 l 156 1000 l 289 1000 l 444 786 l 331 786 z "},"˜":{"ha":444,"x_min":-28,"x_max":472,"o":"m 472 979 q 319 790 450 790 q 257 803 282 790 q 212 832 232 817 q 173 860 192 847 q 132 874 154 874 q 63 789 76 874 l -28 789 q 125 976 -6 976 q 188 963 163 976 q 233 935 213 950 q 271 906 253 919 q 313 893 289 893 q 358 915 342 893 q 382 979 375 936 l 472 979 z "},"–":{"ha":694,"x_min":69,"x_max":625,"o":"m 69 329 l 69 432 l 625 432 l 625 329 l 69 329 z "},"—":{"ha":1389,"x_min":69,"x_max":1319,"o":"m 69 329 l 69 432 l 1319 432 l 1319 329 l 69 329 z "},"‘":{"ha":344,"x_min":81,"x_max":264,"o":"m 179 908 l 258 908 l 206 738 q 248 706 232 729 q 264 653 264 683 q 238 588 264 615 q 172 561 211 561 q 107 588 133 561 q 81 653 81 615 q 93 703 81 678 l 179 908 z "},"’":{"ha":344,"x_min":81,"x_max":264,"o":"m 88 579 l 140 750 q 97 783 114 760 q 81 835 81 806 q 107 900 81 874 q 172 926 133 926 q 238 900 211 926 q 264 835 264 874 q 253 785 264 811 l 165 579 l 88 579 z "},"‚":{"ha":344,"x_min":81,"x_max":264,"o":"m 88 -182 l 140 -11 q 97 22 114 -1 q 81 74 81 44 q 107 139 81 113 q 172 165 133 165 q 238 139 211 165 q 264 74 264 113 q 253 24 264 50 l 165 -182 l 88 -182 z "},"“":{"ha":588,"x_min":81,"x_max":507,"o":"m 179 908 l 258 908 l 206 738 q 248 706 232 729 q 264 653 264 683 q 238 588 264 615 q 172 561 211 561 q 107 588 133 561 q 81 653 81 615 q 93 703 81 678 l 179 908 m 422 908 l 501 908 l 449 738 q 491 706 475 729 q 507 653 507 683 q 481 588 507 615 q 415 561 454 561 q 350 588 376 561 q 324 653 324 615 q 336 703 324 678 l 422 908 z "},"”":{"ha":588,"x_min":81,"x_max":507,"o":"m 88 579 l 140 750 q 97 783 114 760 q 81 835 81 806 q 107 900 81 874 q 172 926 133 926 q 238 900 211 926 q 264 835 264 874 q 253 785 264 811 l 165 579 l 88 579 m 331 579 l 383 750 q 340 783 357 760 q 324 835 324 806 q 350 900 324 874 q 415 926 376 926 q 481 900 454 926 q 507 835 507 874 q 496 785 507 811 l 408 579 l 331 579 z "},"„":{"ha":588,"x_min":81,"x_max":507,"o":"m 88 -182 l 140 -11 q 97 22 114 -1 q 81 74 81 44 q 107 139 81 113 q 172 165 133 165 q 238 139 211 165 q 264 74 264 113 q 253 24 264 50 l 165 -182 l 88 -182 m 331 -182 l 383 -11 q 340 22 357 -1 q 324 74 324 44 q 350 139 324 113 q 415 165 376 165 q 481 139 454 165 q 507 74 507 113 q 496 24 507 50 l 408 -182 l 331 -182 z "},"†":{"ha":772,"x_min":75,"x_max":697,"o":"m 361 -144 l 313 286 l 353 563 l 351 564 l 75 524 l 75 671 l 353 631 l 354 632 l 313 908 l 460 908 l 418 632 l 419 631 l 697 671 l 697 524 l 421 564 l 419 563 l 460 286 l 410 -144 l 361 -144 z "},"‡":{"ha":772,"x_min":75,"x_max":697,"o":"m 313 -144 l 354 132 l 353 133 l 75 93 l 75 240 l 351 200 l 353 201 l 313 382 l 353 563 l 351 564 l 75 524 l 75 671 l 353 631 l 354 632 l 313 908 l 460 908 l 418 632 l 419 631 l 697 671 l 697 524 l 421 564 l 419 563 l 460 382 l 419 201 l 421 200 l 697 240 l 697 93 l 419 133 l 418 132 l 460 -144 l 313 -144 z "},"•":{"ha":550,"x_min":89,"x_max":461,"o":"m 275 192 q 203 206 238 192 q 144 247 169 221 q 103 306 118 272 q 89 378 89 340 q 103 449 89 415 q 144 509 118 483 q 203 549 169 535 q 275 564 238 564 q 347 549 313 564 q 406 509 381 535 q 447 449 432 483 q 461 378 461 415 q 447 306 461 340 q 406 247 432 272 q 347 206 381 221 q 275 192 313 192 z "},"…":{"ha":1389,"x_min":178,"x_max":1211,"o":"m 269 -18 q 205 8 232 -18 q 178 74 178 35 q 205 139 178 113 q 269 165 232 165 q 335 139 308 165 q 361 74 361 113 q 335 8 361 35 q 269 -18 308 -18 m 694 -18 q 629 8 656 -18 q 603 74 603 35 q 629 139 603 113 q 694 165 656 165 q 760 139 733 165 q 786 74 786 113 q 760 8 786 35 q 694 -18 733 -18 m 1119 -18 q 1054 8 1081 -18 q 1028 74 1028 35 q 1054 139 1028 113 q 1119 165 1081 165 q 1184 139 1157 165 q 1211 74 1211 113 q 1184 8 1211 35 q 1119 -18 1157 -18 z "},"‰":{"ha":1436,"x_min":40,"x_max":1396,"o":"m 1182 -18 q 1098 -1 1138 -18 q 1029 46 1058 17 q 983 115 1000 75 q 967 199 967 154 q 983 281 967 242 q 1029 349 1000 319 q 1098 395 1058 378 q 1182 413 1138 413 q 1265 395 1226 413 q 1333 349 1304 378 q 1379 281 1363 319 q 1396 199 1396 242 q 1379 115 1396 154 q 1333 46 1363 75 q 1265 -1 1304 17 q 1182 -18 1226 -18 m 1182 71 q 1231 81 1208 71 q 1269 108 1253 90 q 1296 149 1286 125 q 1306 199 1306 172 q 1270 287 1306 250 q 1182 324 1235 324 q 1094 287 1129 324 q 1058 199 1058 250 q 1068 149 1058 172 q 1094 108 1078 125 q 1133 81 1111 90 q 1182 71 1156 71 m 135 0 l 711 908 l 813 908 l 236 0 l 135 0 m 254 496 q 171 513 210 496 q 103 560 132 531 q 57 628 74 589 q 40 711 40 667 q 57 794 40 756 q 103 863 74 833 q 171 909 132 892 q 254 926 210 926 q 338 909 299 926 q 407 863 378 892 q 453 794 436 833 q 469 711 469 756 q 453 628 469 667 q 407 560 436 589 q 338 513 378 531 q 254 496 299 496 m 254 585 q 342 622 307 585 q 378 711 378 658 q 342 801 378 764 q 254 838 307 838 q 166 801 201 838 q 131 711 131 764 q 166 622 131 658 q 254 585 201 585 m 696 -18 q 612 -1 651 -18 q 543 46 572 17 q 497 115 514 75 q 481 199 481 154 q 497 281 481 242 q 543 349 514 319 q 612 395 572 378 q 696 413 651 413 q 779 395 740 413 q 847 349 818 378 q 893 281 876 319 q 910 199 910 242 q 893 115 910 154 q 847 46 876 75 q 779 -1 818 17 q 696 -18 740 -18 m 696 71 q 744 81 722 71 q 783 108 767 90 q 810 149 800 125 q 819 199 819 172 q 784 287 819 250 q 696 324 749 324 q 608 287 643 324 q 572 199 572 250 q 582 149 572 172 q 608 108 592 125 q 647 81 625 90 q 696 71 669 71 z "},"‹":{"ha":508,"x_min":74,"x_max":435,"o":"m 294 67 l 74 343 l 294 619 l 435 619 l 211 343 l 435 67 l 294 67 z "},"›":{"ha":508,"x_min":74,"x_max":436,"o":"m 74 67 l 297 343 l 74 619 l 214 619 l 436 343 l 214 67 l 74 67 z "},"€":{"ha":725,"x_min":58,"x_max":674,"o":"m 190 608 l 535 608 l 501 501 l 190 501 l 190 408 l 475 408 l 442 301 l 190 301 l 190 292 q 238 155 190 206 q 368 104 286 104 q 484 141 438 104 q 543 239 531 178 l 674 239 q 641 135 667 182 q 576 53 615 88 q 483 1 536 19 q 368 -18 431 -18 q 243 4 300 -18 q 145 67 186 26 q 81 164 104 107 q 58 290 58 221 l 58 618 q 81 744 58 688 q 145 842 104 801 q 243 904 186 882 q 368 926 300 926 q 483 908 431 926 q 576 855 536 889 q 641 774 615 821 q 674 669 667 726 l 543 669 q 484 767 531 731 q 368 804 438 804 q 238 753 286 804 q 190 617 190 703 l 190 608 z "},"™":{"ha":1244,"x_min":38,"x_max":1151,"o":"m 1065 392 l 1065 804 l 1063 804 l 890 392 l 807 392 l 635 804 l 632 804 l 632 392 l 549 392 l 549 908 l 682 908 l 847 514 l 850 514 l 1017 908 l 1151 908 l 1151 392 l 1065 392 m 204 392 l 204 831 l 38 831 l 38 908 l 458 908 l 458 831 l 290 831 l 290 392 l 204 392 z "}}}
